<svg version="1.2" xmlns="http://www.w3.org/2000/svg" viewBox="0 0 1400 1400" width="500" height="500">
	<title>vecteezy_basketball_259788</title>
	<defs>
		<linearGradient id="g1" x2="1" gradientUnits="userSpaceOnUse" gradientTransform="matrix(1030.623,-478.504,478.532,1030.685,-216.381,1118.283)">
			<stop offset="0" stop-color="#ffffff"/>
			<stop offset="1" stop-color="#60b0ff"/>
		</linearGradient>
		<linearGradient id="g2" x2="1" gradientUnits="userSpaceOnUse" gradientTransform="matrix(543.054,387.039,-361.995,507.916,308.928,538.015)">
			<stop offset="0" stop-color="#38a9dc"/>
			<stop offset="1" stop-color="#5c22ce"/>
		</linearGradient>
		<linearGradient id="g3" x2="1" gradientUnits="userSpaceOnUse" gradientTransform="matrix(573.057,-819.082,874.94,612.137,463.063,1008.41)">
			<stop offset="0" stop-color="#f97f48"/>
			<stop offset="1" stop-color="#ffe15f"/>
		</linearGradient>
		<linearGradient id="g4" x2="1" gradientUnits="userSpaceOnUse" gradientTransform="matrix(10.418,-290.219,42.296,1.518,623.616,592.998)">
			<stop offset="0" stop-color="#1b1464"/>
			<stop offset="1" stop-color="#5c22ce"/>
		</linearGradient>
		<linearGradient id="g5" x2="1" gradientUnits="userSpaceOnUse" gradientTransform="matrix(149.946,0,0,98.13,556.724,218.836)">
			<stop offset="0" stop-color="#38a9dc"/>
			<stop offset="1" stop-color="#5c22ce"/>
		</linearGradient>
		<linearGradient id="g6" x2="1" gradientUnits="userSpaceOnUse" gradientTransform="matrix(37.467,0,0,24.844,602.728,258.154)">
			<stop offset="0" stop-color="#4f55d3"/>
			<stop offset="1" stop-color="#5c22ce"/>
		</linearGradient>
		<linearGradient id="g7" x2="1" gradientUnits="userSpaceOnUse" gradientTransform="matrix(10.648,-71.875,70.495,10.444,624.924,286.561)">
			<stop offset="0" stop-color="#ffffff"/>
			<stop offset="1" stop-color="#60b0ff"/>
		</linearGradient>
		<linearGradient id="g8" x2="1" gradientUnits="userSpaceOnUse" gradientTransform="matrix(71.424,0,0,13.885,594.433,249.89)">
			<stop offset="0" stop-color="#1b1464"/>
			<stop offset="1" stop-color="#5c22ce"/>
		</linearGradient>
		<linearGradient id="g9" x2="1" gradientUnits="userSpaceOnUse" gradientTransform="matrix(-100.495,152.992,-82.848,-54.42,959.273,962.994)">
			<stop offset="0" stop-color="#38a9dc"/>
			<stop offset="1" stop-color="#5c22ce"/>
		</linearGradient>
		<linearGradient id="g10" x2="1" gradientUnits="userSpaceOnUse" gradientTransform="matrix(25.499,139.493,-105.599,19.303,880.07,970.62)">
			<stop offset="0" stop-color="#1b1464"/>
			<stop offset="1" stop-color="#5c22ce"/>
		</linearGradient>
		<linearGradient id="g11" x2="1" gradientUnits="userSpaceOnUse" gradientTransform="matrix(1.447,.157,-0.159,1.468,937.331,1079.285)">
			<stop offset="0" stop-color="#1b1464"/>
			<stop offset="1" stop-color="#5c22ce"/>
		</linearGradient>
		<linearGradient id="g12" x2="1" gradientUnits="userSpaceOnUse" gradientTransform="matrix(166,0,0,85.319,638.17,902.446)">
			<stop offset="0" stop-color="#1b1464"/>
			<stop offset="1" stop-color="#5c22ce"/>
		</linearGradient>
		<linearGradient id="g13" x2="1" gradientUnits="userSpaceOnUse" gradientTransform="matrix(169.054,0,0,150.437,728.433,1029.975)">
			<stop offset="0" stop-color="#e55c01"/>
			<stop offset="1" stop-color="#b53b01"/>
		</linearGradient>
		<linearGradient id="g14" x2="1" gradientUnits="userSpaceOnUse" gradientTransform="matrix(315.339,0,0,414.726,438.831,1066.117)">
			<stop offset="0" stop-color="#e55c01"/>
			<stop offset="1" stop-color="#b53b01"/>
		</linearGradient>
		<linearGradient id="g15" x2="1" gradientUnits="userSpaceOnUse" gradientTransform="matrix(66.405,-44.473,50.486,75.383,675.316,917.219)">
			<stop offset="0" stop-color="#a02d12"/>
			<stop offset="1" stop-color="#b53b01"/>
		</linearGradient>
		<linearGradient id="g16" x2="1" gradientUnits="userSpaceOnUse" gradientTransform="matrix(92.51,-61.956,14.646,21.868,786.413,1092.634)">
			<stop offset="0" stop-color="#a02d12"/>
			<stop offset="1" stop-color="#b53b01"/>
		</linearGradient>
		<linearGradient id="g17" x2="1" gradientUnits="userSpaceOnUse" gradientTransform="matrix(-166.492,203.99,-47.85,-39.054,634.826,941.904)">
			<stop offset="0" stop-color="#e55c01"/>
			<stop offset="1" stop-color="#f7931e"/>
		</linearGradient>
		<linearGradient id="g18" x2="1" gradientUnits="userSpaceOnUse" gradientTransform="matrix(46.498,-398.98,365.912,42.644,815.74,1005.263)">
			<stop offset="0" stop-color="#38a9dc"/>
			<stop offset="1" stop-color="#5c22ce"/>
		</linearGradient>
		<linearGradient id="g19" x2="1" gradientUnits="userSpaceOnUse" gradientTransform="matrix(209.676,0,0,289.165,532.647,422.391)">
			<stop offset="0" stop-color="#e55c01"/>
			<stop offset="1" stop-color="#b53b01"/>
		</linearGradient>
		<linearGradient id="g20" x2="1" gradientUnits="userSpaceOnUse" gradientTransform="matrix(-49.951,-23.506,55.639,-118.233,1099.688,760.324)">
			<stop offset="0" stop-color="#ffffff"/>
			<stop offset="1" stop-color="#60b0ff"/>
		</linearGradient>
		<linearGradient id="g21" x2="1" gradientUnits="userSpaceOnUse" gradientTransform="matrix(-238,-112,55.831,-118.64,1128.455,795.494)">
			<stop offset="0" stop-color="#38a9dc"/>
			<stop offset="1" stop-color="#5c22ce"/>
		</linearGradient>
		<linearGradient id="g22" x2="1" gradientUnits="userSpaceOnUse" gradientTransform="matrix(-175,105,-51.376,-85.626,724.874,368.293)">
			<stop offset="0" stop-color="#e55c01"/>
			<stop offset="1" stop-color="#f7931e"/>
		</linearGradient>
		<linearGradient id="g23" x2="1" gradientUnits="userSpaceOnUse" gradientTransform="matrix(.667,-126.667,80.019,.421,824.442,384.885)">
			<stop offset="0" stop-color="#e55c01"/>
			<stop offset="1" stop-color="#b53b01"/>
		</linearGradient>
		<linearGradient id="g24" x2="1" gradientUnits="userSpaceOnUse" gradientTransform="matrix(86.612,0,0,155.911,756.17,326.338)">
			<stop offset="0" stop-color="#a02d12"/>
			<stop offset="1" stop-color="#b53b01"/>
		</linearGradient>
		<linearGradient id="g25" x2="1" gradientUnits="userSpaceOnUse" gradientTransform="matrix(-117.278,204.399,-204.399,-117.278,579.918,475.391)">
			<stop offset="0" stop-color="#f15a24"/>
			<stop offset="1" stop-color="#c1451f"/>
		</linearGradient>
		<linearGradient id="g26" x2="1" gradientUnits="userSpaceOnUse" gradientTransform="matrix(220.153,0,0,220.127,396.921,602.481)">
			<stop offset="0" stop-color="#f97f48"/>
			<stop offset="1" stop-color="#ffe15f"/>
		</linearGradient>
		<linearGradient id="g27" x2="1" gradientUnits="userSpaceOnUse" gradientTransform="matrix(70.383,-173.445,200.215,81.247,490.595,641.347)">
			<stop offset="0" stop-color="#f97f48"/>
			<stop offset="1" stop-color="#ffe15f"/>
		</linearGradient>
		<linearGradient id="g28" x2="1" gradientUnits="userSpaceOnUse" gradientTransform="matrix(-271,-403,281.092,-189.022,1054.279,704.413)">
			<stop offset="0" stop-color="#38a9dc"/>
			<stop offset="1" stop-color="#5c22ce"/>
		</linearGradient>
		<linearGradient id="g29" x2="1" gradientUnits="userSpaceOnUse" gradientTransform="matrix(-63.333,-202,62.327,-19.541,1067.281,656.247)">
			<stop offset="0" stop-color="#ffffff"/>
			<stop offset="1" stop-color="#60b0ff"/>
		</linearGradient>
		<linearGradient id="g30" x2="1" gradientUnits="userSpaceOnUse" gradientTransform="matrix(109.523,0,0,55.786,933.031,425.778)">
			<stop offset="0" stop-color="#1b1464"/>
			<stop offset="1" stop-color="#5c22ce"/>
		</linearGradient>
		<linearGradient id="g31" x2="1" gradientUnits="userSpaceOnUse" gradientTransform="matrix(134.044,0,0,189.356,901.671,364.129)">
			<stop offset="0" stop-color="#f15a24"/>
			<stop offset="1" stop-color="#edb32e"/>
		</linearGradient>
		<linearGradient id="g32" x2="1" gradientUnits="userSpaceOnUse" gradientTransform="matrix(-409.48,-248.988,107.225,-176.34,1304.35,625.425)">
			<stop offset="0" stop-color="#e55c01"/>
			<stop offset="1" stop-color="#b53b01"/>
		</linearGradient>
		<linearGradient id="g33" x2="1" gradientUnits="userSpaceOnUse" gradientTransform="matrix(-113,228,-121.12,-60.029,563.614,1065.259)">
			<stop offset="0" stop-color="#ffffff"/>
			<stop offset="1" stop-color="#60b0ff"/>
		</linearGradient>
		<linearGradient id="g34" x2="1" gradientUnits="userSpaceOnUse" gradientTransform="matrix(145.333,-97.333,89.724,133.972,759.166,344.908)">
			<stop offset="0" stop-color="#e55c01"/>
			<stop offset="1" stop-color="#f7931e"/>
		</linearGradient>
		<linearGradient id="g35" x2="1" gradientUnits="userSpaceOnUse" gradientTransform="matrix(44.998,44.998,-46.251,46.251,965.468,404.185)">
			<stop offset="0" stop-color="#a02d12"/>
			<stop offset="1" stop-color="#b53b01"/>
		</linearGradient>
		<linearGradient id="g36" x2="1" gradientUnits="userSpaceOnUse" gradientTransform="matrix(143.067,-187.088,112.133,85.749,707.796,969.847)">
			<stop offset="0" stop-color="#38a9dc"/>
			<stop offset="1" stop-color="#5c22ce"/>
		</linearGradient>
		<linearGradient id="g37" x2="1" gradientUnits="userSpaceOnUse" gradientTransform="matrix(36.313,0,0,168.97,717.546,348.287)">
			<stop offset="0" stop-color="#f15a24"/>
			<stop offset="1" stop-color="#edb32e"/>
		</linearGradient>
		<linearGradient id="g38" x2="1" gradientUnits="userSpaceOnUse" gradientTransform="matrix(-179.333,-112.667,96.429,-153.488,891.73,256.178)">
			<stop offset="0" stop-color="#e55c01"/>
			<stop offset="1" stop-color="#b53b01"/>
		</linearGradient>
		<linearGradient id="g39" x2="1" gradientUnits="userSpaceOnUse" gradientTransform="matrix(211.058,-18.487,13.843,158.046,765.734,134.033)">
			<stop offset="0" stop-color="#1b1464"/>
			<stop offset="1" stop-color="#5c22ce"/>
		</linearGradient>
		<linearGradient id="g40" x2="1" gradientUnits="userSpaceOnUse" gradientTransform="matrix(150.623,0,0,142.274,353.707,1271.902)">
			<stop offset="0" stop-color="#1b1464"/>
			<stop offset="1" stop-color="#5c22ce"/>
		</linearGradient>
		<linearGradient id="g41" x2="1" gradientUnits="userSpaceOnUse" gradientTransform="matrix(-55.497,-260.987,191.557,-40.733,699.232,780.736)">
			<stop offset="0" stop-color="#38a9dc"/>
			<stop offset="1" stop-color="#5c22ce"/>
		</linearGradient>
		<linearGradient id="g42" x2="1" gradientUnits="userSpaceOnUse" gradientTransform="matrix(-103,-74.5,56.918,-78.691,560.594,553.835)">
			<stop offset="0" stop-color="#e55c01"/>
			<stop offset="1" stop-color="#f7931e"/>
		</linearGradient>
	</defs>
	<style>
		.s0 { fill: url(#g1) } 
		.s1 { fill: url(#g2) } 
		.s2 { fill: url(#g3) } 
		.s3 { fill: #ffffff } 
		.s4 { fill: url(#g4) } 
		.s5 { fill: url(#g5) } 
		.s6 { fill: url(#g6) } 
		.s7 { fill: url(#g7) } 
		.s8 { fill: url(#g8) } 
		.s9 { fill: url(#g9) } 
		.s10 { fill: url(#g10) } 
		.s11 { fill: url(#g11) } 
		.s12 { fill: url(#g12) } 
		.s13 { fill: url(#g13) } 
		.s14 { fill: url(#g14) } 
		.s15 { fill: url(#g15) } 
		.s16 { fill: url(#g16) } 
		.s17 { fill: url(#g17) } 
		.s18 { fill: url(#g18) } 
		.s19 { fill: url(#g19) } 
		.s20 { fill: url(#g20) } 
		.s21 { fill: url(#g21) } 
		.s22 { fill: url(#g22) } 
		.s23 { fill: url(#g23) } 
		.s24 { fill: url(#g24) } 
		.s25 { fill: url(#g25) } 
		.s26 { fill: url(#g26) } 
		.s27 { fill: url(#g27) } 
		.s28 { fill: url(#g28) } 
		.s29 { fill: url(#g29) } 
		.s30 { fill: url(#g30) } 
		.s31 { fill: url(#g31) } 
		.s32 { fill: url(#g32) } 
		.s33 { fill: url(#g33) } 
		.s34 { fill: url(#g34) } 
		.s35 { fill: url(#g35) } 
		.s36 { fill: url(#g36) } 
		.s37 { fill: url(#g37) } 
		.s38 { fill: url(#g38) } 
		.s39 { fill: url(#g39) } 
		.s40 { fill: url(#g40) } 
		.s41 { fill: url(#g41) } 
		.s42 { fill: url(#g42) } 
	</style>
	<g>
		<g>
			<path class="s0" d="m1079.1 438.9c-393-138.7-107.2-440.7-578.1-298.2-401 121.3-629.1 734.9-215 1043.3 671.8 500.2 1271.6-576.1 793.1-745.1z"/>
			<path class="s1" d="m1079.1 438.9c-61.4-21.7-106.2-47.3-139.9-74.6h-742c-174.1 238.2-199.2 595 77.5 811h732.1c261.6-221.3 354.6-636.7 72.3-736.4z"/>
			<path class="s2" d="m625.7 503.3c-175.3 0-348.3 9.7-518.5 28.4-82.3 221.4-48.6 482.9 178.8 652.3 588.1 437.9 1121.1-332.6 923.5-644.6-191.2-23.8-386.1-36.1-583.8-36.1z"/>
			<g>
				<path class="s3" d="m793 960.5c-50.6-19.5-117.6-30.2-188.8-30.2-71.2 0-138.3 10.7-188.9 30.2-43.5 16.8-70.8 38.7-79 62.8h-197.3c2.8 4.7 5.7 9.4 8.6 14h186q0 0.7 0 1.5c0 30.2 29 58 81.7 78.3 50.6 19.5 117.6 30.2 188.8 30.2 71.2 0 138.3-10.7 188.8-30.2 52.7-20.3 81.7-48.1 81.7-78.3q0-0.8 0-1.5h257.7c3.3-4.6 6.4-9.3 9.6-14h-269.8c-8.2-24.2-35.6-46.1-79.1-62.8zm-372.6 13c49-18.9 114.3-29.3 183.8-29.3 69.5 0 134.8 10.5 183.8 29.3 36.1 13.9 60.1 31.4 69 49.7h-505.6c8.8-18.2 32.9-35.8 69-49.7zm367.6 130.5c-49 18.9-114.3 29.3-183.8 29.3-69.5 0-134.8-10.4-183.8-29.3-46.2-17.8-72.7-41.6-72.7-65.2 0-0.5 0-1 0.1-1.5h512.9c0 0.5 0.1 1 0.1 1.5-0.1 23.7-26.6 47.4-72.8 65.2z"/>
				<path class="s3" d="m1242.7 619.5c-194.9 37.3-448.7 57.8-714.5 57.8-157.2 0-317.9-7.2-454.2-20.3-0.7 4.6-1.4 9.2-2.1 13.9 136.8 13.2 298.4 20.4 456.2 20.4 266.8 0 521.6-20.6 717.4-58.1l-1.3-6.9c-0.5-2.3-1-4.6-1.5-6.8z"/>
			</g>
			<g>
				<path fill-rule="evenodd" class="s4" d="m613.5 252.3h33.7v305.2h-33.7z"/>
				<path class="s5" d="m648.7 169.8h-35.4c-31.2 0-56.5 25.3-56.5 56.5v29.7c0 6.6 5.3 11.9 11.9 11.9h126.1c6.6 0 11.9-5.3 11.9-11.9v-28.1c0-32.1-26-58.1-58-58.1z"/>
				<g>
					<path class="s3" d="m598.6 253.9h62.6v-62.6h-62.6zm4-58.6h54.6v54.6h-54.6z"/>
				</g>
				<g>
					<path class="s6" d="m602.7 267l1.7 3.6c17.2-8.3 28.9-16.4 35.7-21.7l-2.5-3.1c-6.5 5.1-18 13-34.9 21.2z"/>
				</g>
				<path class="s7" d="m662.4 245.7h-64.6l9.7 59.4 22.6-9.3 22.6 9.3 8.2-50.4c1.3-1.2 2-1.9 2.1-2l-1.5-1.5zm-59.9 4h21.8l-0.6 0.8c4.4 3.3 10.8 7.8 19.4 12.7-3.6 2.4-7.7 5-12.5 7.7-16.6-9.5-25.6-17.6-28-19.9zm4.3 26.1l-3-18.6c4.3 3.7 11.8 9.4 22.9 15.9-4.2 2.3-8.8 4.6-13.9 6.9-2-1.4-4.1-2.8-6-4.2zm0.9 5.6c0.3 0.2 0.6 0.4 0.8 0.6-0.2 0.1-0.5 0.2-0.7 0.3zm2.9 18l-2.1-13.1c1.3-0.6 2.6-1.2 3.9-1.7 4.8 3.2 9.6 6.2 13.7 8.5zm6.1-16.8c5.1-2.4 9.8-4.8 14-7.2 4.3 2.4 9 4.8 14.2 7.3-5 3.3-9.7 6.1-14.3 8.3-3.3-1.8-8.5-4.8-13.9-8.4zm32.9 16.8l-14.7-6c4.6-2.4 9.3-5.3 14.2-8.7q1.3 0.6 2.7 1.2zm3.7-22.5q-2.3 1.6-4.5 3.3c-5.1-2.4-9.7-4.7-14-7 4.7-2.8 8.9-5.4 12.4-7.8 2.3 1.3 4.8 2.6 7.4 3.9zm1.9-11.8c-1.5-0.8-3-1.5-4.4-2.3 2.1-1.5 3.9-2.9 5.5-4.2zm2.1-12.6c-2.2 1.9-5.6 4.7-10.4 8.1-7.2-4.1-13-7.9-17.4-10.9h28.2z"/>
				<path class="s8" d="m660.6 243h-60.9c-2.9 0-5.3 2.4-5.3 5.3v3.3c0 2.9 2.4 5.3 5.3 5.3h60.9c2.9 0 5.3-2.4 5.3-5.3v-3.3c0-2.9-2.4-5.3-5.3-5.3z"/>
			</g>
			<path class="s9" d="m950.2 1008.8c2-11 2-34 2-34l-81 37-24 58c-1 22-3 52 27 57 30 5 41-19 58-40 17-21 22-30 23-40 1-10-7-27-5-38z"/>
			<g>
				<path class="s10" d="m933.6 983.3l-67.4 58.5-3.6 24.3c-1.4 7.7 2.6 52.8-6.9 51.2 4.1 4.6 10 8 18.5 9.4 30 5 41-19 58-40 0.1-0.1 0.2-0.3 0.3-0.4-8.2 9.2-12.2 7.5-6.3-7.6 7-18-1-37 5-54 6-16.9 2.4-41.4 2.4-41.4z"/>
				<g>
					<path class="s11" d="m937.3 1079.5l0.8 0.6 0.7-0.9-0.8-0.6c-0.2 0.3-0.5 0.6-0.7 0.9z"/>
				</g>
			</g>
			<path class="s12" d="m647.2 869.8l-9 43c0 0 77 40 128 31l38-41-18-43z"/>
			<path class="s13" d="m759.2 954.8c-27 34-26 71-30 92-4 21 8 54 43 58 35 4 88-24 121-75 33-51-134-75-134-75z"/>
			<path class="s14" d="m632.2 859.8c-7 9-31 64-36 78-5 14-37 24-58 66-21 42-61 165-90 207-29 42 16 96 47 36 31-60 96-115 121-152 25-37 27-68 52-94 25-26 86-98 86-98 0 0-115-52-122-43z"/>
			<path class="s15" d="m665.7 897.3c17.2 7.8 53.8 22.3 69.1 28.3 11.4-13.3 19.4-22.8 19.4-22.8 0 0-44.4-20.1-79.7-33.1-1.9 6.8-5.1 17.7-8.8 27.6z"/>
			<path class="s16" d="m855.7 1032.3l-65 59c0 0 21-1 35-11 14-10 51.3-36.1 51.3-36.1 1.3-2.1-21.3-11.9-21.3-11.9z"/>
			<path class="s17" d="m596.2 937.8c-5 14-37 24-58 66-21 42-61 165-90 207-4.7 6.9-7.5 14.1-8.7 21l28.2-10.5c36-72 89-203 103-220 14-17 31-39 30-30-1 9 6 31 9 23 3-8 8-33 32-62 24-29 24-35 24-35 0 0-27.8-7.9-48.8-8-8.6 18.7-17.8 40.4-20.7 48.5z"/>
			<path class="s18" d="m944.2 668.8c-63-4-174-91-174-91 0 0-28 14-35 35-27 9-34 54-44 64-10 10-34 92-44 126-10 34-31 87-31 87 0 0 51-2 91 8 40 10 73 13 80 14-20 25-45 44-45 44 0 0 18 5 45 19 27 14 70 75 74 78 4 3 32-22 32-22 0 0 36-18 61-45 25-27 61-77 68-92 7-15 5-33 5-33 0 0 6-21 22-74 16-53 16.4-121 16.4-121 0 0-58.4 7-121.4 3z"/>
			<path class="s19" d="m727.4 285.2c-4.6 3.7-35.1 6.5-53.5 53.5-18.4 47-17.5 49.8-32.3 75.6-14.8 25.8-33.8 51.3-44 79-18.5 5.5-52.9 7.4-64 12-11.1 4.6 71.1 67.7 84.9 61.2 13.8-6.5 27.7-11.1 39.7-25.8 12-14.8 55.4-83 73.8-128.2 18.4-45.2 6.5-134.7 6.5-134.7 0 0-6.5 3.7-11.1 7.4z"/>
			<path class="s20" d="m1058.1 666.6c-3.1 0.3-7.1 0.7-11.9 1-0.3 5.9-2.6 12.4-7.5 20.7-12.7 21.2 1 62.5 4.2 119.5q2.9-9.4 6.3-21 1.9-6.4 3.6-13.2c-4.2-36.6-8.5-68.4-3.1-78.3 6.2-11.4 8.8-20.2 8.4-28.7z"/>
			<path class="s21" d="m949.2 636.8l-186.4-47.3c11.4 18.3 37.9 123.8 106.4 158.3 62.4 31.4 133-46 142-53 9-7-62-58-62-58z"/>
			<path class="s22" d="m727.4 285.2c-4.6 3.7-35.1 6.5-53.5 53.5-18.5 47-17.5 49.8-32.3 75.6-14.8 25.8-33.8 51.3-44 79-18.5 5.5-52.9 7.4-64 12-2.5 1-0.3 5 4.8 10.5 14.4-3.7 51-12.7 58.2-9.5 9 4 17 14 20 11 3-3-2-34 30-67 32-33 44-91 58-116 14-25 25.1-15.9 31-7.9 1.1 1.5 3.5 0.3 6.3-2.7-0.9-25.8-3.6-45.8-3.6-45.8 0 0-6.3 3.6-10.9 7.3z"/>
			<path class="s23" d="m770.7 255.4c0 0 5.5 21.4 4.5 35.4-1 14-5 94-5 94l75 19 34-135c0 0 1-24 0-35-1-11-108.5 21.6-108.5 21.6z"/>
			<path class="s24" d="m842.7 357.3c-1.7 2.8-21 21-35-9-11.1-23.7-25-78-25-78l-5.9-21.9-9.6 7.4-11 30 4 51 65.5 67.5c0 0 18.7-49.8 17-47z"/>
			<g>
				<path fill-rule="evenodd" class="s25" d="m507 712.6c-60.9 0-110.1-49.2-110.1-110.1 0-60.9 49.2-110.1 110.1-110.1 60.9 0 110.1 49.2 110.1 110.1 0 60.9-49.2 110.1-110.1 110.1z"/>
				<path class="s26" d="m542.7 619.9c0.6-16.3 9.3-28.8 19.1-43.1 9.5-13.7 20-28.9 25.1-50-2.3-2.5-4.8-4.8-7.3-7.1-4.2 22.1-14.7 37.4-24.9 52.1-10.5 15.1-20.4 29.5-20.7 48.9-7.7 0.7-15.4 1.1-23.2 1.2l-0.6-129.5c-1.2 0-2.5-0.1-3.7-0.1-1.7 0-3.3 0.1-4.9 0.1l0.6 129.4c-7.7-0.1-15.4-0.5-23.1-1.1-0.6-19.3-10.6-33.5-21.2-48.5-10.2-14.5-20.7-29.4-25.2-51.1q-3.7 3.4-7.2 7.2c5.4 20.6 15.9 35.5 25.3 48.8 9.9 14.1 18.7 26.5 19.5 42.6-25.1-2.8-49.7-8.7-73.5-17.5q0 0.3 0 0.6c0 3 0.1 5.9 0.4 8.8 23.6 8.4 47.9 14.1 72.8 16.8-2 16.7-11.8 30.3-29.4 40.4-5.4 3.1-10.8 5.5-15.4 7.1 2.1 2.3 4.3 4.6 6.6 6.7 4-1.6 8.4-3.7 12.9-6.2 20-11.5 31.7-27.7 33.9-47.2 7.8 0.7 15.6 1 23.5 1.1l0.4 81.9c1.6 0.1 3.3 0.1 4.9 0.1 1.2 0 2.5 0 3.7-0.1l-0.4-81.9q11.9-0.2 23.7-1.2c2.5 19.4 14.3 35.5 34.3 46.7 4.8 2.7 9.5 4.8 13.7 6.4 2.3-2.2 4.5-4.4 6.6-6.8-4.8-1.7-10.5-4-16.3-7.3-17.6-9.9-27.6-23.3-29.8-39.9 25.2-2.9 49.8-8.6 73.6-17.3 0.2-3.1 0.4-6.1 0.3-9.3v-0.1c-23.7 9.4-48.6 15.4-74.1 18.4z"/>
				<path class="s27" d="m506.5 492.4c-51.4 0.2-94.4 35.7-106.3 83.4 4.6 60.1 54.9 107.3 116.2 107.1 41.1-0.2 77.2-21.8 97.6-54.2 2.1-8.6 3.2-17.5 3.1-26.7-0.3-60.8-49.8-109.9-110.6-109.6z"/>
				<path class="s3" d="m542.7 619.9c0.6-16.3 9.3-28.8 19.1-43.1 9.5-13.7 20-28.9 25.1-50q-0.9-0.9-1.8-1.8-0.9-0.9-1.8-1.8c-0.6-0.6-1.2-1.2-1.8-1.7-0.6-0.6-1.3-1.1-1.9-1.7-4.2 22.1-14.7 37.4-24.9 52.1-10.5 15.1-20.4 29.5-20.7 48.9-7.7 0.7-15.4 1.1-23.2 1.2l-0.6-129.5q-0.7 0-1.5 0c-0.7 0-1.4 0-2.2 0-1.7 0-3.3 0.1-4.9 0.1l0.6 129.4c-7.7-0.1-15.4-0.5-23.1-1.1-0.6-19.3-10.6-33.5-21.2-48.5-10.2-14.5-20.7-29.4-25.2-51.1-0.1 0.1-0.3 0.3-0.4 0.4-0.4 0.3-0.7 0.7-1.1 1-0.2 0.2-0.4 0.4-0.7 0.6q-0.6 0.6-1.2 1.2c-0.2 0.2-0.3 0.3-0.5 0.5-0.5 0.5-1 1-1.5 1.6l-0.1 0.1c-0.6 0.6-1.1 1.2-1.7 1.8 5.4 20.6 15.9 35.5 25.3 48.8 9.9 14.1 18.7 26.5 19.5 42.6-21.8-2.5-43.1-7.2-63.8-14.1 1.3 3.6 2.7 7.1 4.3 10.5 19.3 6 39.1 10.1 59.2 12.3q-2.4 20.1-19.8 33.9c2.5 1.7 5.1 3.3 7.7 4.8 12-10.4 19-23.2 20.7-37.9 7.8 0.7 15.6 1 23.5 1.1l0.2 51.5c2.9 0.3 5.7 0.5 8.7 0.7l-0.2-52.2q11.9-0.2 23.7-1.2c2.3 17.5 12.1 32.3 28.8 43.3 3.1-1.4 6.1-2.9 9.1-4.6-17.2-9.9-27.1-23.2-29.2-39.6 25.2-2.9 49.8-8.6 73.6-17.3 0-0.5 0.1-1 0.1-1.4 0-0.6 0.1-1.2 0.1-1.9 0-0.7 0.1-1.3 0.1-2 0-0.3 0-0.7 0-1q0-1.5 0-3v-0.1c-24 9.2-48.9 15.2-74.4 18.2z"/>
			</g>
			<path class="s28" d="m1053.2 450.8c-28-83-56-151-56-151 0 0-38-28-50-35-12-7-67.6-9.8-67.6-9.8 0 0-43.4 89.8-61.4 113.8-18 24-38.2-20.1-43.6-92.6-2.8-12.9-4.4-20.4-4.4-20.4l8-9c0 0-26 16-40 31-15 65-23 128-20 137 3 9 15 18 15 18 0 0 4 8 7 15 7 50 22 99 22 99 0 0-1 10 2 18-4 15-3 22-3 22 0 0 25 42 68 98 43 56 71 50 125 36 54-14 57-26 57-26 0 0 17-1 28-10 28-10 30-26 30-32 0-6-12-42-14-64-2-22 1-94-2-138z"/>
			<path class="s29" d="m1039.7 439.3c2-33-81 3-81 3 35 65 39 137 60 173 20 34.3 36.3 42.3 22.4 68.8 7.2-2.7 12.5-5.9 16.5-9.1 3.6-20.2-9.1-35.1-29.8-69.7-22.7-37.6 9.9-133 11.9-166z"/>
			<path class="s30" d="m1029.2 411.8c-27-19-85-13-85-13-10-2-16 13-6 24 10 11 35 43 68 26 33-17 50-18 23-37z"/>
			<path class="s31" d="m927.4 394.1c23.2-44.1 49.1-83.3 61-100.7-9.2-6.7-23.8-17.2-33.8-23.9-4.2-0.2-9.1-0.1-13.5 1.2-10 3-44 19-39 83 5 64 73 106 100 105 27-1 33.5-17 33.5-17l-8.5-15c0.1 0.1-49.4 51.8-99.7-32.6z"/>
			<path class="s32" d="m1332.8 679.4c-2.8-0.9-32-18.8-37.6-20.7-5.6-1.9-36.7-31-46.1-38.6-2.8-14.1-7.5-19.8-8.5-24.5-1-4.7-10.3-48.9-18.8-80.9-8.5-32-26.3-58.3-37.6-67.7-11.3-9.4-59.3-48.9-88.4-67.7-29.2-18.8-29.2-14.1-45.2-32.9-16-18.8-54.6-55.5-95-69.6-6.3-2.2-47 15.1-39.5 77.1 7.5 62.1 39.5 64 39.5 64 0 0 29.2-3.8 36.7-8.5 7.5-4.7 31 32.9 77.1 50.8 46.1 17.9 72.4 32.9 80 41.4 7.6 8.5 27.3 44.2 37.6 78.1 10.3 33.9 13.2 60.2 14.1 63 0.9 2.8-5.6 16-2.8 30.1 2.8 14.1 9.4 29.2 10.3 33.9 0.9 4.7 15.1 4.7 14.1-10.3-0.4-6.6 0-18.8 4.7-19.8 4.7-0.9 12.2 10.3 18.8 21.6 5 8.6 9.4 25.4 11.3 32 1.9 6.6 10.3 6.6 10.3 0 0-6.6-1.9-31-3.8-36.7-1.9-5.6-8.5-18.8-4.7-14.1 3.8 4.7 11.2 13.2 12.2 16.9 1.9 6.6 10.3 20.7 13.2 26.3 2.8 5.6 15.1 7.5 13.2 1.9-0.7-2-9.4-25.4-14.1-38.6-1.9-5.4-7.5-15.1-7.5-15.1 0 0 13.2 8.5 16.9 11.3 3.7 2.8 21.6 17.9 26.3 20.7 4.7 2.8 15.1 1.9 12.2-1.9-2.8-3.8-27.3-26.3-28.2-27.3-0.9-1 16 10.3 21.6 11.3 5.6 1 10.5-4.6 7.7-5.5z"/>
			<path class="s33" d="m491.8 1118.4c-14.9 37.4-30.4 73.3-43.6 92.4-29 42 16 96 47 36 17.1-33 44.5-64.6 69.8-92.4-44.1-3.5-65.5-25.5-73.2-36z"/>
			<path class="s34" d="m818.2 368.8c-18 24-38.2-20.1-43.6-92.6-2.8-12.9-4.4-20.4-4.4-20.4l8-9c0 0-9.8 6-20.6 14.2 5.1 29.7 15.1 100.3 34.1 119.3 14 14 23 13 23 13 0 0 21-26 42-67 16.4-32.1 31-59.8 36.6-70.4-8-0.6-13.6-0.9-13.6-0.9 0 0-43.5 89.8-61.5 113.8z"/>
			<path class="s35" d="m951.7 417c2.4 0.8 3.9 0.9 3.9 0.9 0 0 29.2-3.8 36.7-8.5 1.7-1 4.1 0 7.4 2.4-28.4-24-49.9-11.7-48 5.2z"/>
			<path class="s36" d="m835.2 798.8c-52 11.7-115 30-96 32 19 2 79-2 86-7 7-5-66 82-66.5 84.2 14.6 2.2 25 3.3 28.5 3.8 20.5-27.5 65-89 65-89 0 0 57-25 78-41 21-16-33 3-95 17z"/>
			<path class="s37" d="m738.2 277.8c-15 65-23 128-20 137 3 9 15 18 15 18-17-22-11-12-3-80 4.4-37.2 19.4-77.7 22.9-87 0.5-1.3 0.8-2 0.8-2-5.7 4.4-11.3 9.2-15.7 14z"/>
			<path class="s38" d="m746.7 133.3l-9 37.1c-9 10.9-3 52.9 14 40.9 12 54 54 83 72 84 18 1 54-34 62-70 8-36 10-52 10-52l-90-58z"/>
			<path class="s3" d="m491.8 1118.4c-14.9 37.4-30.4 73.3-43.6 92.4-4.7 6.9-7.5 14.1-8.7 21l28.2-10.5c12.2-24.4 26.4-55.6 40.3-86.9-7.9-5.9-13.1-11.9-16.2-16z"/>
			<path class="s39" d="m913.7 151.8c-1.2-23.2 0.7-59.4-42-85.5-46.6-28.6-96-5-104 13-19-7-39.5 11.5-34.5 57.5 1.6 15 8 33 8 33 0 0 7.5-10.5 12.5-2.5 4.2 6.8 2.9 37.6 5 33 6-13 7-39 7-39 0 0 6-10 12-22 0 0 13.1 22.5 27 26 4 1-5-2-5-16 92 102 187 17 114 2.5z"/>
			<path class="s40" d="m504.2 1246.8c-1-11-16-13-16-13 0 0 1-12-3-19-4-7-25-13-35-14-10-1-18 29-18 29-6 6-9 22-9 22 0 0-3 2-7 4-4 2-23 15-48 32-25 17-10 41-10 41 0 0 1 5 5 9 4 4 4 6 31 5 27-1 46-1 57-4 11-3 46-19 49-21 3-2 3-6-2-21 1-6 3-35 3-35 0 0 4-4 3-15z"/>
			<path class="s41" d="m735.2 612.8c-27 9-34 54-44 64-10 10-34 92-44 126-10 34-31 87-31 87 0 0 24.2-1 52.4 1.7 11.9-44.3 44.5-168.3 49.1-179.2 5-12 25 24 35 35 10 11-7-41-10-75-3-34 20-85 20-85l0.5-5.4c-8.8 5.5-23.3 16.6-28 30.9z"/>
			<path class="s42" d="m558.7 498.3c-5 1-12-5-19-11-7-6-14-7-27-5-7-3-21-1-26 0-5 1-15 8-15 8 0 0-21 7-25 11-4 4-7 12-9 20-2 8 10-4 14-9 4-5 18-11 18-11-5 9-4 13 4 9 8-4 15-13 15-13 0 0 12.5 1.5 24.5-0.5-11.5 13.5 3.5 11.5 19 5 0 0 9 4 17.5 4.5 22 12 16.3 9 27 17 8 6 11-3 5-11-6-8-18-15-23-14z"/>
		</g>
	</g>
</svg>