<?xml version="1.0" encoding="utf-8"?>
<!-- Generator: Adobe Illustrator 22.1.0, SVG Export Plug-In . SVG Version: 6.00 Build 0)  -->
<svg xmlns="http://www.w3.org/2000/svg" xmlns:xlink="http://www.w3.org/1999/xlink" version="1.1" id="layer_1" x="0px" y="0px" viewBox="0 0 1400 1400" style="enable-background:new 0 0 1400 1400;" xml:space="preserve">
<style type="text/css">
	.st0{fill:#FFF7E4;}
	.st1{fill:url(#SVGID_1_);}
	.st2{fill:url(#SVGID_2_);}
	.st3{fill:url(#SVGID_3_);}
	.st4{fill:url(#SVGID_4_);}
	.st5{fill:url(#SVGID_5_);}
	.st6{fill:url(#SVGID_6_);}
	.st7{fill:url(#SVGID_7_);}
	.st8{fill:#FFFFFF;}
	.st9{fill:url(#SVGID_8_);}
	.st10{fill:url(#SVGID_9_);}
	.st11{fill:url(#SVGID_10_);}
	.st12{fill:url(#SVGID_11_);}
	.st13{fill:url(#SVGID_12_);}
	.st14{fill:url(#SVGID_13_);}
	.st15{fill:url(#SVGID_14_);}
	.st16{fill:url(#SVGID_15_);}
	.st17{fill:url(#SVGID_16_);}
	.st18{fill:url(#SVGID_17_);}
	.st19{fill:url(#SVGID_18_);}
	.st20{fill:url(#SVGID_19_);}
	.st21{fill:url(#SVGID_20_);}
	.st22{fill:url(#SVGID_21_);}
	.st23{fill:#D3710F;}
	.st24{fill:url(#SVGID_22_);}
</style>
<g>
	
	<g>
		<linearGradient id="SVGID_1_" gradientUnits="userSpaceOnUse" x1="707.1878" y1="192.5417" x2="691.6403" y2="1327.5067">
			<stop offset="0" style="stop-color:#FFDEA4"/>
			<stop offset="1" style="stop-color:#CC7200"/>
		</linearGradient>
		<path class="st1" d="M1154.2,410.6C731.5,259.1,1041-64.9,532.8,86.2C100.1,214.9-148.9,875,295.8,1209.4    C1017.1,1751.9,1669.1,595.1,1154.2,410.6z"/>
		<g>
			<linearGradient id="SVGID_2_" gradientUnits="userSpaceOnUse" x1="359.9961" y1="699.1038" x2="449.394" y2="151.0555">
				<stop offset="0" style="stop-color:#FFFFFF"/>
				<stop offset="1" style="stop-color:#60B0FF"/>
			</linearGradient>
			<path class="st2" d="M293.1,1207.4l201.1-640.5L182,1099.4C212.6,1138,249.5,1174.3,293.1,1207.4z"/>
			<linearGradient id="SVGID_3_" gradientUnits="userSpaceOnUse" x1="226.9664" y1="677.4039" x2="316.3643" y2="129.3557">
				<stop offset="0" style="stop-color:#FFFFFF"/>
				<stop offset="1" style="stop-color:#60B0FF"/>
			</linearGradient>
			<path class="st3" d="M97.9,951.3l318.6-571c0,0-235.4,283.6-352,428.5C69.5,857.2,80.4,905.1,97.9,951.3z"/>
			<linearGradient id="SVGID_4_" gradientUnits="userSpaceOnUse" x1="1013.0265" y1="805.6265" x2="1102.4244" y2="257.5782">
				<stop offset="0" style="stop-color:#FFFFFF"/>
				<stop offset="1" style="stop-color:#60B0FF"/>
			</linearGradient>
			<path class="st4" d="M1078.7,1198.6c51.2-43.8,96.3-94.6,134-148.8L813.9,558.1L1078.7,1198.6z"/>
			<linearGradient id="SVGID_5_" gradientUnits="userSpaceOnUse" x1="794.7659" y1="770.0223" x2="884.1641" y2="221.9729">
				<stop offset="0" style="stop-color:#FFFFFF"/>
				<stop offset="1" style="stop-color:#60B0FF"/>
			</linearGradient>
			<path class="st5" d="M820.9,1336l-238.1,7.1C666.1,1359,746.1,1355,820.9,1336z"/>
			<linearGradient id="SVGID_6_" gradientUnits="userSpaceOnUse" x1="1058.7881" y1="813.0911" x2="1148.186" y2="265.0429">
				<stop offset="0" style="stop-color:#FFFFFF"/>
				<stop offset="1" style="stop-color:#60B0FF"/>
			</linearGradient>
			<path class="st6" d="M863.5,380.3l445.6,479.3c24.9-74.7,34.9-149.2,27.1-216.1L863.5,380.3z"/>
		</g>
		<linearGradient id="SVGID_7_" gradientUnits="userSpaceOnUse" x1="865.5218" y1="-206.2264" x2="612.8755" y2="369.0298">
			<stop offset="0" style="stop-color:#38A9DC"/>
			<stop offset="1" style="stop-color:#5C22CE"/>
		</linearGradient>
		<path class="st7" d="M532.8,86.2c-47,14-91.9,34.2-133.9,59.7v125.9c0,10.4,8.4,18.8,18.8,18.8h532.6c3.8,0,7.4-1.2,10.4-3.1    C830.2,135.9,924.9-30.4,532.8,86.2z"/>
		<path class="st8" d="M781,222.3H573.5V74.7c-5,1.3-10,2.7-15.2,4.2v158.6h237.9V55c-4.8-1.5-9.8-2.9-15.2-4V222.3z"/>
		<linearGradient id="SVGID_8_" gradientUnits="userSpaceOnUse" x1="658.2385" y1="361.7497" x2="698.7315" y2="88.4218">
			<stop offset="0" style="stop-color:#FFFFFF"/>
			<stop offset="1" style="stop-color:#60B0FF"/>
		</linearGradient>
		<path class="st9" d="M800.9,206.3H555.3L592,432l86.1-35.3l86.1,35.3l31.2-191.8c4.9-4.4,7.5-7.1,8-7.6l-5.8-5.6L800.9,206.3z     M686.7,221.5c-1.8,1.3-3.6,2.5-5.4,3.8c-1.9-1.3-3.7-2.6-5.4-3.8H686.7z M728,272.6c-13.6,9.1-29.4,19-47.6,29.3    c-17.8-10.2-33.3-20-46.6-29c18.1-10.3,33.9-20.2,47.5-29.3C694.4,252.5,709.9,262.3,728,272.6z M573.1,221.5h83.1l-2.2,2.9    c4.1,3.1,8.7,6.5,13.7,10.1c-13.7,9-29.6,18.8-47.9,29c-25.3-18.1-40.4-31.7-46-37.1L573.1,221.5z M577.8,250.2    c6.9,5.8,15.9,13.1,27.2,21.3c-7,3.7-14.3,7.5-21.9,11.3L577.8,250.2z M589.3,320.8l-3.6-22.3c11.7-5.8,22.8-11.5,33.1-17.2    c13,9,28.3,18.9,46,29.3c-16,8.6-33.5,17.5-52.7,26.3C604.4,331.6,596.7,326.2,589.3,320.8z M592.7,341.9c1.1,0.7,2.1,1.5,3.2,2.2    c-0.9,0.4-1.8,0.8-2.7,1.2L592.7,341.9z M603.9,410.7l-8.1-49.9c5.1-2.2,10.1-4.4,14.9-6.6c18.1,12,36.6,23.5,51.9,32.4    L603.9,410.7z M627,346.7c19.5-9.2,37.3-18.4,53.4-27.3c16.2,9.1,34.2,18.4,54.1,27.8c-18.9,12.5-37.1,23.2-54.4,31.7    C667.3,371.9,647.6,360.2,627,346.7z M752.3,410.7l-55.9-23c17.3-9.2,35.5-20.2,54.2-33c3.3,1.5,6.7,3,10.1,4.5L752.3,410.7z     M766.2,324.9c-5.8,4.3-11.5,8.5-17.2,12.4c-19.4-9-37-18-53.1-26.7c18.1-10.5,33.7-20.5,47-29.6c8.8,4.8,18.2,9.8,28,14.7    L766.2,324.9z M773.5,280c-5.8-2.9-11.3-5.9-16.7-8.8c8-5.8,14.9-11.1,20.7-15.8L773.5,280z M781.3,232.4    c-8.3,7.2-21.3,17.9-39.4,30.7c-18.1-10.2-33.8-19.9-47.1-28.7c6.5-4.6,12.4-9,17.6-12.9H783L781.3,232.4z"/>
		<linearGradient id="SVGID_9_" gradientUnits="userSpaceOnUse" x1="542.2859" y1="222.2943" x2="813.8994" y2="222.2943">
			<stop offset="0" style="stop-color:#1B1464"/>
			<stop offset="1" style="stop-color:#5C22CE"/>
		</linearGradient>
		<path class="st10" d="M787.8,196.1H568.4c-14.4,0-26.1,11.7-26.1,26.1v0c0,14.4,11.7,26.1,26.1,26.1h219.3    c14.4,0,26.1-11.7,26.1-26.1v0C813.9,207.9,802.2,196.1,787.8,196.1z"/>
		<linearGradient id="SVGID_10_" gradientUnits="userSpaceOnUse" x1="772.433" y1="259.3919" x2="626.1298" y2="514.3775">
			<stop offset="0" style="stop-color:#F15A24"/>
			<stop offset="1" style="stop-color:#C1451F"/>
		</linearGradient>
		<circle class="st11" cx="681.5" cy="417.9" r="137.3"/>
		<linearGradient id="SVGID_11_" gradientUnits="userSpaceOnUse" x1="544.1459" y1="417.9355" x2="818.7847" y2="417.9355">
			<stop offset="0" style="stop-color:#F97F48"/>
			<stop offset="1" style="stop-color:#FFE15F"/>
		</linearGradient>
		<path class="st12" d="M725.9,439.8c0.9-20.3,11.7-35.9,24.1-53.6c11.9-17,25.1-35.9,31.6-62.2c-2.9-3.1-5.9-6-9.1-8.8    c-5.3,27.6-18.6,46.5-31.4,64.9c-13.1,18.8-25.6,36.7-26.1,60.9c-9.6,0.8-19.2,1.2-29,1.3V280.7c-1.5-0.1-3.1-0.1-4.6-0.1    c-2.1,0-4.1,0.1-6.2,0.1v161.4c-9.6-0.2-19.2-0.7-28.8-1.5c-0.6-24.1-13-41.9-26.1-60.6c-12.7-18.1-25.7-36.8-31.2-63.8    c-3.1,2.8-6.1,5.8-9,9c6.6,25.7,19.6,44.3,31.3,61.1c12.3,17.6,23.1,33.1,24.1,53.3c-31.3-3.7-62-11.1-91.5-22.3    c0,0.2,0,0.5,0,0.7c0,3.7,0.2,7.4,0.4,11c29.3,10.7,59.7,17.8,90.7,21.4c-2.6,20.8-15,37.7-36.9,50.3c-6.8,3.9-13.5,6.7-19.3,8.8    c2.6,2.9,5.4,5.7,8.2,8.4c5-2,10.6-4.6,16.1-7.7c25-14.2,39.7-34.4,42.6-58.7c9.7,0.9,19.5,1.4,29.3,1.5v102.1    c2,0.1,4.1,0.1,6.2,0.1c1.5,0,3.1,0,4.6-0.1V453c9.9-0.1,19.7-0.5,29.5-1.3c3,24.2,17.6,44.3,42.6,58.5c5.9,3.4,11.8,6,17.1,8.1    c2.9-2.7,5.7-5.5,8.3-8.5c-6-2.1-13.1-5.1-20.3-9.2c-21.9-12.5-34.2-29.3-36.9-49.9c31.4-3.4,62.2-10.5,91.9-21.2    c0.3-3.8,0.5-7.7,0.5-11.6c0,0,0-0.1,0-0.1C788.8,429,757.7,436.3,725.9,439.8z"/>
		<linearGradient id="SVGID_12_" gradientUnits="userSpaceOnUse" x1="661.0552" y1="466.4141" x2="748.8459" y2="250.0727">
			<stop offset="0" style="stop-color:#F97F48"/>
			<stop offset="1" style="stop-color:#FFE15F"/>
		</linearGradient>
		<path class="st13" d="M681.5,280.6c-64.1,0-118,44-133.1,103.4c5.3,75,67.9,134.2,144.3,134.2c51.3,0,96.4-26.7,122.1-67    c2.7-10.7,4.1-21.8,4.1-33.3C818.8,342.1,757.3,280.6,681.5,280.6z"/>
		<path class="st8" d="M725.9,439.8c0.9-20.3,11.7-35.9,24.1-53.6c11.9-17,25.1-35.9,31.6-62.2l0,0c-0.7-0.8-1.4-1.5-2.2-2.3    c0,0,0,0,0,0c-0.7-0.7-1.5-1.5-2.2-2.2c0,0,0,0,0,0c-0.8-0.7-1.5-1.5-2.3-2.2c0,0,0,0,0,0c-0.8-0.7-1.6-1.4-2.3-2.1c0,0,0,0,0,0    c-5.3,27.6-18.6,46.5-31.4,64.9c-13.1,18.8-25.6,36.7-26.1,60.9c-9.6,0.8-19.2,1.2-29,1.3V280.7h0c-0.6,0-1.3,0-1.9-0.1    c-0.9,0-1.8,0-2.7,0c-2.1,0-4.1,0.1-6.2,0.1v161.4c-9.6-0.2-19.2-0.7-28.8-1.5c-0.6-24.1-13-41.9-26.1-60.6    c-12.7-18.1-25.7-36.8-31.2-63.8c-0.2,0.2-0.3,0.3-0.5,0.5c-0.4,0.4-0.9,0.8-1.3,1.2c-0.3,0.3-0.6,0.5-0.8,0.8    c-0.5,0.5-1,1-1.5,1.4c-0.2,0.2-0.4,0.4-0.6,0.6c-0.6,0.6-1.3,1.3-1.9,1.9c-0.1,0.1-0.1,0.1-0.2,0.2c-0.7,0.8-1.4,1.5-2.1,2.3    c6.6,25.7,19.6,44.3,31.3,61.1c12.3,17.6,23.1,33.1,24.1,53.3c-27.1-3.2-53.7-9.2-79.5-18c1.6,4.5,3.4,8.9,5.4,13.1    c24,7.5,48.7,12.8,73.8,15.7c-2,16.7-10.4,30.8-24.9,42.2c3.1,2.1,6.3,4.2,9.6,6.1c15-12.9,23.9-28.9,26.1-47.2    c9.7,0.9,19.5,1.4,29.3,1.5v64.2c3.6,0.4,7.2,0.7,10.8,0.9V453c9.9-0.1,19.7-0.5,29.5-1.3c2.7,21.8,14.9,40.4,35.6,54.2    c3.9-1.7,7.7-3.6,11.4-5.7c-21.4-12.4-33.6-29.1-36.2-49.6c31.4-3.4,62.2-10.5,91.9-21.2c0.1-0.6,0.1-1.2,0.1-1.8    c0.1-0.8,0.1-1.5,0.1-2.3c0-0.8,0.1-1.6,0.1-2.4c0-0.4,0-0.9,0-1.3c0-1.2,0.1-2.5,0.1-3.7c0,0,0-0.1,0-0.1    C788.8,429,757.7,436.3,725.9,439.8z"/>
		<linearGradient id="SVGID_13_" gradientUnits="userSpaceOnUse" x1="792.2703" y1="530.1137" x2="793.242" y2="976.1317">
			<stop offset="0" style="stop-color:#E55C01"/>
			<stop offset="1" style="stop-color:#B53B01"/>
		</linearGradient>
		<path class="st14" d="M835.8,843.3c-4.9-16.5-67-163.2-73.9-189.5c-6.8-26.2-9.7-49.6-12.6-57.3c2.9-9.7,25.3-49.6,31.1-69    c3.6-12.1-8.4-36.3-8.7-31.1c-1,14.6-4.9,38-4.9,34c0-7.8-4.9-21.4-10.7-42.8c-3.1-11.4-10.1,1.8-9.7,4.9c1,7.8,2.9,48.6,1.9,43.7    c-1-4.9-5.5-33.2-10.7-44.7c-4.9-10.7-11.7,2.9-10.7,7.8c1.2,5.8,6.8,34,4.9,39.8c-1.9,5.8-6.8,15.5-6.8,15.5s-0.5-8.7,0-14.6    c1.1-12.9-7.2-21.2-13.6-39.8c-2.6-7.6-7.8,0-7.8,5.8c0,5.8,3.9,31.1,2.9,37.9c-1,6.8-9.7,36-11.7,33c-1.9-2.9-2.9-14.6-10.7-28.2    c-7.8-13.6-31.4-10.1-27.2-2.9c9.7,16.5,3.9,20.4,5.8,26.2c1.9,5.8,16.5,27.2,16.5,27.2s8.7,1.9,17.5,37.9    c1.8,7.2,11.4,37.1,15.5,50.5c16.5,53.2,34.8,142.1,41.8,177.8c8.7,44.7,25,75,25,75l38.2,130l99.1,28.2c0,0,21.4-40.8,8.7-97.2    C912.6,945.4,840.6,859.9,835.8,843.3z"/>
		<linearGradient id="SVGID_14_" gradientUnits="userSpaceOnUse" x1="792.9308" y1="913.6239" x2="744.345" y2="557.9756">
			<stop offset="0" style="stop-color:#A02D12"/>
			<stop offset="1" style="stop-color:#B53B01"/>
		</linearGradient>
		<path class="st15" d="M812,914.8c-31.1-26.2-21.9-39.6-42.8-103c-22.3-68-56.4-171-58.3-180.7c23.3,6.8,23.3-4.9,37.9-35    c0.7-1.5,1.5-2.9,2.4-4.4c6.3-14.4,24.1-47.1,29.2-64.1c3.6-12.1-8.4-36.3-8.7-31.1c-1,14.6-4.9,38-4.9,34    c0-7.8-4.9-21.4-10.7-42.8c-3.1-11.4-10.1,1.8-9.7,4.9c1,7.8,2.9,48.6,1.9,43.7c-1-4.9-5.5-33.2-10.7-44.7    c-4.9-10.7-11.7,2.9-10.7,7.8c1.2,5.8,6.8,34,4.9,39.8c-1.9,5.8-6.8,15.5-6.8,15.5s-0.5-8.7,0-14.6c1.1-12.9-7.2-21.2-13.6-39.8    c-2.6-7.6-7.8,0-7.8,5.8c0,5.8,3.9,31.1,2.9,37.9c-1,6.8-9.7,36-11.7,33c-1.9-2.9-2.9-14.6-10.7-28.2    c-7.8-13.6-31.4-10.1-27.2-2.9c9.7,16.5,3.9,20.4,5.8,26.2c1.9,5.8,16.5,27.2,16.5,27.2s8.7,1.9,17.5,37.9    c1.8,7.2,11.4,37.1,15.5,50.5c16.5,53.2,34.8,142.1,41.8,177.8c8.7,44.7,25,75,25,75l38.2,130l16.5,4.7l11.2-87.8    c12.6,9.7,52.5,57.3,50.5,47.6C893.6,1025.5,843.1,941,812,914.8z"/>
		<linearGradient id="SVGID_15_" gradientUnits="userSpaceOnUse" x1="620.0687" y1="923.0243" x2="769.713" y2="923.0243">
			<stop offset="0" style="stop-color:#E55C01"/>
			<stop offset="1" style="stop-color:#B53B01"/>
		</linearGradient>
		<path class="st16" d="M761.9,857.9l-141.9,21.4c4.9,13.6,11.7,53.4,15.5,78.7c3.9,25.3,113.7,30.1,113.7,30.1l20.4-32.1    C757.1,901.6,761.9,857.9,761.9,857.9z"/>
		<linearGradient id="SVGID_16_" gradientUnits="userSpaceOnUse" x1="566.0908" y1="843.1969" x2="601.1066" y2="843.1969">
			<stop offset="0" style="stop-color:#E55C01"/>
			<stop offset="1" style="stop-color:#B53B01"/>
		</linearGradient>
		<path class="st17" d="M589,822c-6.8-4.9-32,9.4-19.4,28.2c9.7,14.6,36,20.4,30.9,9.9C590.8,839.7,589,822,589,822z"/>
		<linearGradient id="SVGID_17_" gradientUnits="userSpaceOnUse" x1="773.7165" y1="816.2632" x2="695.0114" y2="870.1907">
			<stop offset="0" style="stop-color:#E55C01"/>
			<stop offset="1" style="stop-color:#B53B01"/>
		</linearGradient>
		<path class="st18" d="M767.8,797.7c0,0-5.3,26.7-1.9,38.9c3.4,12.1,19.6-0.8,26.2-22.3C799.8,788.9,773.6,785,767.8,797.7z"/>
		<linearGradient id="SVGID_18_" gradientUnits="userSpaceOnUse" x1="468.2834" y1="433.8631" x2="439.1289" y2="1040.2749">
			<stop offset="0" style="stop-color:#E55C01"/>
			<stop offset="1" style="stop-color:#B53B01"/>
		</linearGradient>
		<path class="st19" d="M573.4,423.6c-5.8-2.9-13.6,9.7-22.3,23.3c1.9-18.5,1-67,2.9-73.9c1.9-6.8,13.6-33,20.4-42.8    c6.8-9.7,6.8-17.5,0-9.7c-6.8,7.8-27.2,25.3-36.9,54.4c-9.7,29.2-13.6,42.8-19.4,79.7c-5.8,36.9-14.6,54.4-31.1,78.7    c-16.5,24.3-101.2,139.1-128.3,188.5c-30.6,55.9-30.6,55.9-2.9,114.7c31.2,66.3,73.1,129.4,105.4,199.7    c6.8,20.4,4.9,51.5,8.3,73.4c0,0,68-70.9,82.6-108.8c14.6-37.9,2.9-77.2,0.5-86c-10.7-39.8-30.1-49.6-58.3-67    c-12.1-8.3-20.2-33.9-30.1-50.5s-21.9-24.3-24.8-40.3c0,0,3.4-16.8,26.2-53.4c27.2-43.7,33-96.2,49.6-123.4    c16.5-27.2,28.2-27.2,40.8-51.5c12.6-24.3,3.9-42.8,17.5-68C587,435.2,579.3,426.5,573.4,423.6z"/>
		<linearGradient id="SVGID_19_" gradientUnits="userSpaceOnUse" x1="547.8536" y1="1016.5453" x2="460.4035" y2="700.2674">
			<stop offset="0" style="stop-color:#A02D12"/>
			<stop offset="1" style="stop-color:#B53B01"/>
		</linearGradient>
		<path class="st20" d="M494.2,847.7c-12.1-8.3-20.2-33.9-30.1-50.5s-21.9-24.3-24.8-40.3c0,0,3.4-16.8,26.2-53.4    c27.2-43.7,33-96.2,49.6-123.4c6.4-10.5,12-17,17.3-22.3c-16.3,8.8-26.3,13.5-48.9,73.3c-30.1,79.7-72.9,133.1-78.7,142.8    c-5.8,9.7-36.9,28.2-25.3,29.2c11.7,1,42.8-15.5,42.8-15.5s29.2,72.9,36,88.4s65.1,23.3,64.1,65.1c-2,87.3-79.3,57.6-89.7,38.5    c0,0,0,0,0,0c9.9,18.5,19.6,37.3,28.5,56.7c6.8,20.4,4.9,51.5,8.3,73.4c0,0,68-70.9,82.6-108.8c14.6-37.9,2.9-77.2,0.5-86    C541.8,874.9,522.4,865.2,494.2,847.7z"/>
		<linearGradient id="SVGID_20_" gradientUnits="userSpaceOnUse" x1="647.5628" y1="885.1256" x2="692.2618" y2="642.1964">
			<stop offset="0" style="stop-color:#1B1464"/>
			<stop offset="1" style="stop-color:#5C22CE"/>
		</linearGradient>
		<path class="st21" d="M751.3,697.6c0,0,9.7-8.7-23.3-28.2c-38.9-25.3-60.2-31.1-48.6-17.5c-79.7-22.3-103-55.4-101.1-31.1    c2.2,27.1,16.5,52.5,16.5,52.5c-10.7-2.9-12.1-7.1-16.5,3.9c-5.8,14.6-34,84.5,6.3,153c10.3,17.5,19.4,36.9,23.3,45.7    c3.9,8.7,46.6,30.1,86.5,37.9c39.8,7.8,70.4-50,75.3-54.9s11.7-66.1,8.7-105.9C775.5,713.1,751.3,697.6,751.3,697.6z"/>
		<linearGradient id="SVGID_21_" gradientUnits="userSpaceOnUse" x1="666.3165" y1="1377.2159" x2="728.5064" y2="739.7698">
			<stop offset="0" style="stop-color:#F15A24"/>
			<stop offset="1" style="stop-color:#EDB32E"/>
		</linearGradient>
		<path class="st22" d="M799.8,936.6c-17.5-1-30.1,9.7-30.1,9.7s-10.7-2.9-24.3,8.7c-13.6,11.7-43.7,11.7-69-3.9    s-56.4-21.4-75.8-8.7c-26.2-24.3-47.6-28.2-47.6-28.2s-68.5,119-83.6,195.3c7.8,24.3,14.6,100.1,14.6,100.1s-6.8,9.7-9.7,42.8    c-1.3,14.5-3.1,36.6-4.8,56.9c139.9,56.6,273.5,54.4,392.2,14.6c3.7-27.2,10-56.9,10-56.9s1.9-7.8,7.8-14.6    c13.6-70,31.1-121.5,36.9-153.5C899,1064.9,873.7,998.8,799.8,936.6z"/>
		<path class="st23" d="M754.8,979.5c-54.5,18.8-91.5-16.2-110.9-18.1c0,0,19.4,58.3,68,56.4C760.5,1015.8,774.1,967.2,754.8,979.5z    "/>
		<linearGradient id="SVGID_22_" gradientUnits="userSpaceOnUse" x1="698.5096" y1="1086.2313" x2="663.5278" y2="1358.312">
			<stop offset="0" style="stop-color:#F15A24"/>
			<stop offset="1" style="stop-color:#C1451F"/>
		</linearGradient>
		<path class="st24" d="M895.6,1123.7c-11.1,10-92.7,57.8-195,60.9c64.7-6.1,120-45.3,139.6-58.9c0,0-55.4,13.6-145.8,21.4    s-170.7-64.1-150.6-37.9c35.1,45.8,73.8,66.9,111.4,73.7c-54.9-5.9-113.4-26.8-168.7-73.7v100.1l-12.1,42.8c0,0.2,0,0.3,0,0.5    c-1.3,14.5-3.1,36.6-4.8,56.9c139.9,56.6,273.5,54.4,392.2,14.6c3.7-27.2,10-56.9,10-56.9s1.9-7.6,7.6-14.3l-0.3-0.7    c0,0,2.4-10.1,5.7-24.6c0.4-1.7,0.7-3.3,1.1-5C894.9,1181,908.6,1112,895.6,1123.7z"/>
	</g>
</g>
</svg>
