<?xml version="1.0" encoding="utf-8"?>
<!-- Generator: Adobe Illustrator 22.1.0, SVG Export Plug-In . SVG Version: 6.00 Build 0)  -->
<svg xmlns="http://www.w3.org/2000/svg" xmlns:xlink="http://www.w3.org/1999/xlink" version="1.1" id="layer_1" x="0px" y="0px" viewBox="0 0 1400 1400" style="enable-background:new 0 0 1400 1400;" xml:space="preserve">
<style type="text/css">
	.st0{fill:#FFF7E4;}
	.st1{fill:url(#SVGID_1_);}
	.st2{fill:url(#SVGID_2_);}
	.st3{fill:url(#SVGID_3_);}
	.st4{fill:url(#SVGID_4_);}
	.st5{fill:url(#SVGID_5_);}
	.st6{fill:url(#SVGID_6_);}
	.st7{fill:url(#SVGID_7_);}
	.st8{fill:url(#SVGID_8_);}
	.st9{fill:#D3710F;}
	.st10{fill:url(#SVGID_9_);}
	.st11{fill:#FFFFFF;}
	.st12{fill:url(#SVGID_10_);}
	.st13{fill:#411C3E;}
	.st14{fill:url(#SVGID_11_);}
	.st15{fill:url(#SVGID_12_);}
	.st16{fill:url(#SVGID_13_);}
	.st17{fill:url(#SVGID_14_);}
	.st18{fill:url(#SVGID_15_);}
	.st19{fill:url(#SVGID_16_);}
	.st20{fill:url(#SVGID_17_);}
	.st21{fill:url(#SVGID_18_);}
	.st22{fill:url(#SVGID_19_);}
	.st23{fill:url(#SVGID_20_);}
	.st24{fill:url(#SVGID_21_);}
	.st25{fill:url(#SVGID_22_);}
	.st26{fill:url(#SVGID_23_);}
	.st27{fill:url(#SVGID_24_);}
	.st28{fill:url(#SVGID_25_);}
	.st29{fill:url(#SVGID_26_);}
	.st30{fill:url(#SVGID_27_);}
	.st31{fill:url(#SVGID_28_);}
	.st32{fill:url(#SVGID_29_);}
	.st33{fill:url(#SVGID_30_);}
	.st34{fill:url(#SVGID_31_);}
	.st35{fill:url(#SVGID_32_);}
	.st36{fill:url(#SVGID_33_);}
	.st37{fill:url(#SVGID_34_);}
	.st38{fill:url(#SVGID_35_);}
	.st39{fill:url(#SVGID_36_);}
	.st40{fill:#A02D12;}
	.st41{fill:url(#SVGID_37_);}
	.st42{fill:url(#SVGID_38_);}
</style>
<g>
	
	<g>
		<linearGradient id="SVGID_1_" gradientUnits="userSpaceOnUse" x1="1584.8245" y1="558.5269" x2="384.8245" y2="754.5269">
			<stop offset="0" style="stop-color:#38A9DC"/>
			<stop offset="1" style="stop-color:#5C22CE"/>
		</linearGradient>
		<path class="st1" d="M1146.9,415.3C731,266.2,1035.5-52.6,535.5,96.1C109.7,222.7-135.3,872.2,302.3,1201.3    C1012,1735,1653.5,596.8,1146.9,415.3z"/>
		<g>
			<linearGradient id="SVGID_2_" gradientUnits="userSpaceOnUse" x1="1311.0062" y1="645.7009" x2="31.0063" y2="693.7009">
				<stop offset="0" style="stop-color:#FFFFFF"/>
				<stop offset="1" style="stop-color:#60B0FF"/>
			</linearGradient>
			<path class="st2" d="M77,662.5c-0.5,4-1,8-1.5,12h1252.6c-0.2-4-0.4-8-0.6-12H77z"/>
			<linearGradient id="SVGID_3_" gradientUnits="userSpaceOnUse" x1="1305.9498" y1="510.8624" x2="25.9499" y2="558.8624">
				<stop offset="0" style="stop-color:#FFFFFF"/>
				<stop offset="1" style="stop-color:#60B0FF"/>
			</linearGradient>
			<path class="st3" d="M109.1,527.5c-1.4,4-2.7,8-4,12h1189.5c-2.1-4.1-4.4-8.1-6.7-12H109.1z"/>
			<linearGradient id="SVGID_4_" gradientUnits="userSpaceOnUse" x1="1290.8065" y1="107.04" x2="10.8065" y2="155.04">
				<stop offset="0" style="stop-color:#FFFFFF"/>
				<stop offset="1" style="stop-color:#60B0FF"/>
			</linearGradient>
			<path class="st4" d="M460.5,124.5c-8.2,3.8-16.3,7.8-24.3,12H869c-2.1-4.1-4.2-8.1-6.4-12H460.5z"/>
			<linearGradient id="SVGID_5_" gradientUnits="userSpaceOnUse" x1="1295.5931" y1="234.6803" x2="15.593" y2="282.6803">
				<stop offset="0" style="stop-color:#FFFFFF"/>
				<stop offset="1" style="stop-color:#60B0FF"/>
			</linearGradient>
			<path class="st5" d="M278.1,254.5c-3.9,4-7.8,8-11.6,12h668.6c-2.8-4-5.4-8-8-12H278.1z"/>
			<linearGradient id="SVGID_6_" gradientUnits="userSpaceOnUse" x1="1300.9702" y1="378.0741" x2="20.9703" y2="426.0741">
				<stop offset="0" style="stop-color:#FFFFFF"/>
				<stop offset="1" style="stop-color:#60B0FF"/>
			</linearGradient>
			<path class="st6" d="M169.5,396.5c-2.3,4-4.6,8-6.9,12h966.2c-10-3.9-19.6-7.9-28.7-12H169.5z"/>
			<linearGradient id="SVGID_7_" gradientUnits="userSpaceOnUse" x1="1316.5341" y1="793.1097" x2="36.5341" y2="841.1097">
				<stop offset="0" style="stop-color:#FFFFFF"/>
				<stop offset="1" style="stop-color:#60B0FF"/>
			</linearGradient>
			<path class="st7" d="M76.5,822.5h1233.2c1.1-4,2.1-8,3.1-12H75C75.5,814.5,76,818.5,76.5,822.5z"/>
		</g>
		<linearGradient id="SVGID_8_" gradientUnits="userSpaceOnUse" x1="622.0552" y1="840.9326" x2="860.249" y2="1290.0981">
			<stop offset="0" style="stop-color:#E18210"/>
			<stop offset="1" style="stop-color:#EDB32E"/>
		</linearGradient>
		<path class="st8" d="M499.8,815.2c-159.6,16.6-299.3,53.2-403.1,100.4c32.8,106.1,98.9,205.4,205.6,285.7    c412,309.9,801.1,56.2,955.8-246.6C762,886.8,1129.8,749.8,499.8,815.2z"/>
		<path class="st9" d="M1028.1,1031.5c-213,30-399,78-608,20c-120.4-33.4-209.3-31.6-265.5-9.2c36.2,57.9,84.9,111.7,147.7,159    c4,3,7.9,5.9,11.9,8.8c66.1-30.8,143-67.9,309.9-21.5c147.1,40.9,269.5,61.7,363.9,64.2c83.1-51.8,154.8-122.1,210.6-200.3    C1170.1,1029.7,1116.6,1019,1028.1,1031.5z"/>
		<g>
			<linearGradient id="SVGID_9_" gradientUnits="userSpaceOnUse" x1="552.1324" y1="985.595" x2="552.1324" y2="928.5978">
				<stop offset="0" style="stop-color:#1B1464"/>
				<stop offset="1" style="stop-color:#5C22CE"/>
			</linearGradient>
			<path class="st10" d="M570.1,948.3c0,0-79.5,10.7-46.5,26.7s67,28,65,15L570.1,948.3z"/>
			<path class="st11" d="M503.6,912l-19,3c0,0-37-7-71,3s-44.9,22.4-56,26c-43,14-90,31-90,31s-12,52,15,45s108-9,148-13s55-8,81-10     s43-7,61-31S503.6,912,503.6,912z"/>
			<linearGradient id="SVGID_10_" gradientUnits="userSpaceOnUse" x1="309.1193" y1="985.554" x2="721.1193" y2="979.554">
				<stop offset="0" style="stop-color:#FFFFFF"/>
				<stop offset="1" style="stop-color:#60B0FF"/>
			</linearGradient>
			<path class="st12" d="M533.1,971.5c-31,7-54-21-90.8-14.6s-106.2,40.6-155.2,46.6l-4.5,16.5c0,0,0,0,0,0c27-7,108-9,148-13     s55-8,81-10s43-7,61-31c4.4-5.9,2.5-12.2-3-18.3C562.1,956.8,549.9,967.7,533.1,971.5z"/>
			<path class="st13" d="M274.6,966c0,0-26,0-34,0c-6-6-3-7-16-9s-52-14-56-12c-3.7,1.8-22,9-21,39s13,38,13,57s-1,47,5,81     s22,42,33,42s19-15,23-47s6-47,9-53s38-13,52-19s8-17,8-17s18-8,20-16s-13-39-16-42S274.6,966,274.6,966z"/>
			<linearGradient id="SVGID_11_" gradientUnits="userSpaceOnUse" x1="314.3576" y1="963.6129" x2="458.3904" y2="963.6129">
				<stop offset="0" style="stop-color:#E55C01"/>
				<stop offset="1" style="stop-color:#B53B01"/>
			</linearGradient>
			<path class="st14" d="M438.7,913.4c-8.2,0.8-16.7,2.2-25.1,4.7c-34,10-44.9,22.4-56,26c-14.6,4.8-29.7,9.9-43.2,14.5     c-0.2,29.8,9.4,46.8,16.6,55.3c33.8-2.6,74.7-4.4,99.7-6.9c10.9-1.1,19.9-2.2,27.8-3.2C441.1,973.2,438.5,935.1,438.7,913.4z"/>
			<linearGradient id="SVGID_12_" gradientUnits="userSpaceOnUse" x1="1061.8278" y1="885.8853" x2="1005.8277" y2="465.8853">
				<stop offset="0" style="stop-color:#E55C01"/>
				<stop offset="1" style="stop-color:#B53B01"/>
			</linearGradient>
			<path class="st15" d="M1115.6,932c-6.4-4.1-54-3-58-5s-10-6-15-28s-31-105-31-156s5-111,4-118s11-13,25-51s-6-82-6-82     s-74,62-78,84s-14,113-14,113l44,172c0,0,16,46,33,76c17,30,21,36,45,37s27,3,31,3s6.3,0,16,6c13,8,29.9,17.7,24,11     c-7-8-29-24-24-22s9.7,6.4,23,13c18,9,27.3,12.7,22,6c-8-10-25-25-22-23s21.2,13.6,27,17C1183.6,998,1145.6,951,1115.6,932z"/>
			<linearGradient id="SVGID_13_" gradientUnits="userSpaceOnUse" x1="1022.0355" y1="528.5648" x2="1067.0332" y2="945.5439">
				<stop offset="0" style="stop-color:#A02D12"/>
				<stop offset="1" style="stop-color:#B53B01"/>
			</linearGradient>
			<path class="st16" d="M1061.1,951.5c-38,4-39.5-24.5-54.5-90.5s-30-39-33-133s1-132,14-131s31-9,24-12s-20-15-12-35.9     c0,0-7.8-3.6-19-6.8c-12.5,13.2-22.6,26-24,33.7c-4,22-14,113-14,113l44,172c0,0,16,46,33,76c17,30,21,36,45,37s27,3,31,3     s6.3,0,16,6c13,8,29.9,17.7,24,11c-7-8-29-24-24-22s9.7,6.4,23,13c18,9,27.3,12.7,22,6c-8-10-25-25-22-23s21.2,13.6,27,17     c12.9,7.6,5.1-5.5-9.6-21.4C1124.4,934.2,1099.1,947.5,1061.1,951.5z"/>
			<path class="st13" d="M604.6,578l-18,22c0,0-5,15,6,31s28-17,31-36S604.6,578,604.6,578z"/>
			<linearGradient id="SVGID_14_" gradientUnits="userSpaceOnUse" x1="582.4695" y1="354.0157" x2="925.0993" y2="354.0157">
				<stop offset="0" style="stop-color:#E55C01"/>
				<stop offset="1" style="stop-color:#B53B01"/>
			</linearGradient>
			<path class="st17" d="M878.6,317c-2-2-17-18-48-21s-57,13-66,14s-50-7-96,0c-11-31-39-58-39-58s-50,9-47,30s20,80,39,90     s96,17,140,8c-3,6-6,19-6,19l-4,23l13,22l29,12l131.5-90.5c0,0-35.5-40.5-38.5-43.5S880.6,319,878.6,317z"/>
			<linearGradient id="SVGID_15_" gradientUnits="userSpaceOnUse" x1="826.0974" y1="481.3408" x2="626.6074" y2="274.3511">
				<stop offset="0" style="stop-color:#A02D12"/>
				<stop offset="1" style="stop-color:#B53B01"/>
			</linearGradient>
			<path class="st18" d="M774.6,324c-9-7,2,20,0,26c-20,0-49.5,3.5-49.5,3.5s-59-27-61-33c-1.9-5.7,3.4,30.2,4.8,32.9     c-2.6-0.4-30.2,2.4-35.8-7.9c-6-11-30-60-34-74l-11-2.5c-3.9,3.7-6.2,8-5.5,13c3,21,20,80,39,90s96,17,140,8c-3,6-6,19-6,19     l-4,23l13,22l20.1,8.3c12.3-6.1,20.4-11.8,20.4-11.8s18.5-31.5,10.5-59.5C811.9,367.9,783.6,331,774.6,324z"/>
			<linearGradient id="SVGID_16_" gradientUnits="userSpaceOnUse" x1="862.1932" y1="390.8385" x2="820.1954" y2="371.3395">
				<stop offset="0" style="stop-color:#A02D12"/>
				<stop offset="1" style="stop-color:#B53B01"/>
			</linearGradient>
			<path class="st19" d="M853.1,416.5c4,24,26.8-51,26.8-51c-9.8,0-32.8-4-38.8-4S849.1,392.5,853.1,416.5z"/>
			<linearGradient id="SVGID_17_" gradientUnits="userSpaceOnUse" x1="832.8941" y1="828.3289" x2="886.8914" y2="778.8314">
				<stop offset="0" style="stop-color:#5B4A5F"/>
				<stop offset="1" style="stop-color:#411C3E"/>
			</linearGradient>
			<path class="st20" d="M894.6,743l-66,118c0,0,74-77,85-86C924.6,766,894.6,743,894.6,743z"/>
			<path class="st11" d="M971.6,695c-26-14-29-15-29-15l-56,9l-9,72c0,0,32,19,48,24c-26,74-7,115.7-9,136c-4,40-6,105-9,123     s57,39,61,0c7-83,30.2-134.6,38-183c9-56,14-94,13-120S997.6,709,971.6,695z"/>
			<linearGradient id="SVGID_18_" gradientUnits="userSpaceOnUse" x1="907.8036" y1="650.3409" x2="933.8036" y2="972.3409">
				<stop offset="0" style="stop-color:#FFFFFF"/>
				<stop offset="1" style="stop-color:#60B0FF"/>
			</linearGradient>
			<path class="st21" d="M953.1,769.5c-4-7-64-34-64-34s-3.3,10-8.1,27.5c8.6,5,31.8,18,44.6,22c-26,74-7,115.7-9,136     c-4,40-6,105-9,123c-1.3,7.9,9.4,16.3,22.2,20c-0.1-62.4,16.6-133.4,6.3-190.5C923.1,801.5,957.1,776.5,953.1,769.5z"/>
			<linearGradient id="SVGID_19_" gradientUnits="userSpaceOnUse" x1="921.7927" y1="976.2797" x2="971.2902" y2="836.7867">
				<stop offset="0" style="stop-color:#E55C01"/>
				<stop offset="1" style="stop-color:#B53B01"/>
			</linearGradient>
			<path class="st22" d="M916.6,921c-2,20.3-3.5,47-4.9,70.7c12.6,6,33.5,12.2,62.5,8.2c9.7-58.4,26.2-99.7,32.5-139     c1.9-11.5,3.5-22.3,5-32.3c-18.3-0.8-64.3-2.9-96.4-5.1C906,874,918.2,904.6,916.6,921z"/>
			<linearGradient id="SVGID_20_" gradientUnits="userSpaceOnUse" x1="607.257" y1="814.0941" x2="721.257" y2="942.0941">
				<stop offset="0" style="stop-color:#5B4A5F"/>
				<stop offset="1" style="stop-color:#687F86"/>
			</linearGradient>
			<path class="st23" d="M604.6,683c0,0-7,26-6,40s-59,105-63,112s-7,19-7,19s-41,56-44,61s91,49,104,75c2-5,0-9,0-9s50-37,88-76     s65-81,82-95s-21-89-21-89L604.6,683z"/>
			<linearGradient id="SVGID_21_" gradientUnits="userSpaceOnUse" x1="659.3506" y1="825.4744" x2="680.3495" y2="739.9786">
				<stop offset="0" style="stop-color:#5B4A5F"/>
				<stop offset="1" style="stop-color:#411C3E"/>
			</linearGradient>
			<path class="st24" d="M709,712.8L709,712.8L604.6,683c0,0-7,26-6,40c0.4,6.1-10.6,26.6-23.5,48.5c0,0,45.5,0.5,57.5,3.5     c12,3,92.4,40.4,116.2,44.7c0,0,0,0,0,0c3.6-4,6.8-7.3,9.8-9.7c8.2-6.8,3.5-27.9-3.5-47.9C745.9,747.6,731.2,730.9,709,712.8z"/>
			<linearGradient id="SVGID_22_" gradientUnits="userSpaceOnUse" x1="695.1733" y1="607.1287" x2="887.1733" y2="809.1287">
				<stop offset="0" style="stop-color:#5B4A5F"/>
				<stop offset="1" style="stop-color:#687F86"/>
			</linearGradient>
			<path class="st25" d="M761.6,553c-58-26-89-9-89-9l-43,17c0,0-21,18-23,20s-14,14-14,50c-7,16-3,32,0,51s59.9,49,108,98     c55,56,121,76,128,81c0,0,97-162,114-181c-72-38-100-49-100-49S819.6,579,761.6,553z"/>
			<linearGradient id="SVGID_23_" gradientUnits="userSpaceOnUse" x1="779.9025" y1="517.5393" x2="991.9024" y2="421.5393">
				<stop offset="0" style="stop-color:#F15A24"/>
				<stop offset="1" style="stop-color:#EDB32E"/>
			</linearGradient>
			<path class="st26" d="M950.6,355c-16.7-15.5-48-30-53-33s-12-2-11,0s13,28-25,67s-117,60-106,10c-1-6-12,38-29,54     c-49.1,46.2-59,54-59,54s-15,2-21,17c-8,17-10,21-10,21s-18-2-29,18s-26,42-19,36s77-60,141-23s113,55,113,55s63-34,70-38     c7-4,42-6,50-10c48-28,56-78,72-91C1022.6,454,978.6,381,950.6,355z"/>
			<linearGradient id="SVGID_24_" gradientUnits="userSpaceOnUse" x1="1130.115" y1="313.945" x2="947.4484" y2="387.945">
				<stop offset="0" style="stop-color:#E55C01"/>
				<stop offset="1" style="stop-color:#B53B01"/>
			</linearGradient>
			<path class="st27" d="M1091.8,349.3c0.8-14.9,0.3-32.3-3.2-51.3c-11-60-74-31-90-17l-24,32c0,0-7.2,26.1-18,43     c-5.5,8.7-16.4,18.6-21,27c-3,56,3,88,59,76c19-32,29-50,29-50l34,18l24-25c0,0,4.4-10.7,7.5-28.7c3.7-0.9,8.1-2.7,7.5-6.3     C1096,363.6,1093.8,355.8,1091.8,349.3z"/>
			<linearGradient id="SVGID_25_" gradientUnits="userSpaceOnUse" x1="1011.5521" y1="367.5074" x2="958.359" y2="369.1193">
				<stop offset="0" style="stop-color:#A02D12"/>
				<stop offset="1" style="stop-color:#B53B01"/>
			</linearGradient>
			<path class="st28" d="M984.1,344.5c-3.1-12.4-42,4-11,28c15.2,11.8,62,46,25,0C990.4,363,987.1,356.5,984.1,344.5z"/>
			<linearGradient id="SVGID_26_" gradientUnits="userSpaceOnUse" x1="1039.3918" y1="427.2845" x2="934.0273" y2="430.4773">
				<stop offset="0" style="stop-color:#A02D12"/>
				<stop offset="1" style="stop-color:#B53B01"/>
			</linearGradient>
			<path class="st29" d="M983.1,433.5c-6,4-39-2-41-4c-1.6-1.6-3.8,9,4.6,22c8.8,9.7,23.7,12.7,47.9,7.5c19-32,29-50,29-50l12.8,6.8     c1.7-5.6,1.7-8.3,1.7-8.3l-26.1-11.7C1007.1,406.5,989.1,429.5,983.1,433.5z"/>
			<linearGradient id="SVGID_27_" gradientUnits="userSpaceOnUse" x1="636.5558" y1="112.2958" x2="549.6183" y2="263.8155">
				<stop offset="0" style="stop-color:#F15A24"/>
				<stop offset="1" style="stop-color:#C1451F"/>
			</linearGradient>
			<circle class="st30" cx="582.5" cy="206.5" r="81.6"/>
			<linearGradient id="SVGID_28_" gradientUnits="userSpaceOnUse" x1="500.9012" y1="206.5069" x2="664.0994" y2="206.5069">
				<stop offset="0" style="stop-color:#F97F48"/>
				<stop offset="1" style="stop-color:#FFE15F"/>
			</linearGradient>
			<path class="st31" d="M608.9,219.5c0.5-12.1,7-21.3,14.3-31.9c7.1-10.1,14.9-21.3,18.8-37c-1.7-1.8-3.5-3.6-5.4-5.3     c-3.2,16.4-11,27.6-18.6,38.5c-7.8,11.2-15.2,21.8-15.5,36.2c-5.7,0.5-11.4,0.7-17.2,0.8v-96c-0.9,0-1.8-0.1-2.8-0.1     c-1.2,0-2.5,0-3.7,0.1v95.9c-5.7-0.1-11.4-0.4-17.1-0.9c-0.3-14.3-7.7-24.9-15.5-36c-7.5-10.8-15.3-21.9-18.5-37.9     c-1.9,1.7-3.7,3.5-5.4,5.3c3.9,15.3,11.7,26.3,18.6,36.3c7.3,10.5,13.7,19.7,14.3,31.7c-18.6-2.2-36.8-6.6-54.4-13.2     c0,0.1,0,0.3,0,0.4c0,2.2,0.1,4.4,0.3,6.5c17.4,6.3,35.5,10.6,53.9,12.7c-1.5,12.4-8.9,22.4-21.9,29.9c-4,2.3-8,4-11.5,5.2     c1.6,1.7,3.2,3.4,4.9,5c3-1.2,6.3-2.7,9.6-4.6c14.9-8.4,23.6-20.5,25.3-34.9c5.8,0.5,11.6,0.8,17.4,0.9V288     c1.2,0.1,2.4,0.1,3.7,0.1c0.9,0,1.8,0,2.8-0.1v-60.7c5.9-0.1,11.7-0.3,17.5-0.8c1.8,14.4,10.5,26.3,25.3,34.7     c3.5,2,7,3.6,10.2,4.8c1.7-1.6,3.4-3.3,4.9-5c-3.6-1.2-7.8-3-12.1-5.5c-13-7.4-20.3-17.4-21.9-29.7c18.7-2,37-6.2,54.6-12.6     c0.2-2.3,0.3-4.6,0.3-6.9c0,0,0-0.1,0-0.1C646.3,213.1,627.8,217.4,608.9,219.5z"/>
			<linearGradient id="SVGID_29_" gradientUnits="userSpaceOnUse" x1="570.3719" y1="235.3142" x2="622.5397" y2="106.7581">
				<stop offset="0" style="stop-color:#F97F48"/>
				<stop offset="1" style="stop-color:#FFE15F"/>
			</linearGradient>
			<path class="st32" d="M582.5,124.9c-38.1,0-70.1,26.1-79.1,61.4c3.2,44.6,40.3,79.8,85.7,79.8c30.5,0,57.3-15.9,72.5-39.8     c1.6-6.3,2.4-13,2.4-19.8C664.1,161.4,627.6,124.9,582.5,124.9z"/>
			<path class="st11" d="M608.9,219.5c0.5-12.1,7-21.3,14.3-31.9c7.1-10.1,14.9-21.3,18.8-37l0,0c-0.4-0.5-0.9-0.9-1.3-1.3     c0,0,0,0,0,0c-0.4-0.4-0.9-0.9-1.3-1.3c0,0,0,0,0,0c-0.4-0.4-0.9-0.9-1.4-1.3c0,0,0,0,0,0c-0.5-0.4-0.9-0.8-1.4-1.3l0,0     c-3.2,16.4-11,27.6-18.6,38.5c-7.8,11.2-15.2,21.8-15.5,36.2c-5.7,0.5-11.4,0.7-17.2,0.8v-96h0c-0.4,0-0.8,0-1.1,0     c-0.5,0-1.1,0-1.6,0c-1.2,0-2.5,0-3.7,0.1v95.9c-5.7-0.1-11.4-0.4-17.1-0.9c-0.3-14.3-7.7-24.9-15.5-36     c-7.5-10.8-15.3-21.9-18.5-37.9c-0.1,0.1-0.2,0.2-0.3,0.3c-0.3,0.2-0.5,0.5-0.8,0.7c-0.2,0.2-0.3,0.3-0.5,0.5     c-0.3,0.3-0.6,0.6-0.9,0.9c-0.1,0.1-0.2,0.2-0.4,0.4c-0.4,0.4-0.8,0.8-1.1,1.2c0,0-0.1,0.1-0.1,0.1c-0.4,0.4-0.9,0.9-1.3,1.4     c3.9,15.3,11.7,26.3,18.6,36.3c7.3,10.5,13.7,19.7,14.3,31.7c-16.1-1.9-31.9-5.5-47.3-10.7c0.9,2.7,2,5.3,3.2,7.8     c14.3,4.5,28.9,7.6,43.8,9.3c-1.2,9.9-6.2,18.3-14.8,25.1c1.8,1.3,3.7,2.5,5.7,3.6c8.9-7.6,14.2-17.2,15.5-28     c5.8,0.5,11.6,0.8,17.4,0.9v38.2c2.1,0.3,4.3,0.4,6.4,0.5v-38.7c5.9-0.1,11.7-0.3,17.5-0.8c1.6,13,8.9,24,21.2,32.2     c2.3-1,4.6-2.1,6.7-3.4c-12.7-7.4-20-17.3-21.5-29.4c18.7-2,37-6.2,54.6-12.6c0-0.4,0.1-0.7,0.1-1.1c0-0.5,0.1-0.9,0.1-1.4     c0-0.5,0-1,0.1-1.5c0-0.3,0-0.5,0-0.8c0-0.7,0-1.5,0-2.2c0,0,0-0.1,0-0.1C646.3,213.1,627.8,217.4,608.9,219.5z"/>
			<path class="st13" d="M1105.6,265c-65-35-117-39-161,6c-8,26,6,74,12,85s14.5-5.5,27.5-11.5c-7-21,18-35,26-15c1.9,4.6,2,30,0,40     s-15-7-12,5s18,37,34,56c16,19,53.5,8.5,49.5-13.5c5-5,1-18,0-15s-12,11-23-14s-35-25-35-44s2-24,2-24s26-8,34-32     c18-2,28,4,29,10C1105.6,299,1126.6,256,1105.6,265z"/>
			<path class="st13" d="M1089.1,1155.5c-16.6-8-69-35-69-35s-5.5-21.5-9.5-27.5s-18-23-23-27s-15,0-15,0s2-24,0-28s-10-23-35-25     c-25-2-30,31-29.7,34.9c0,0-15.3,15.1-19.3,25.1s-30,64-30,64s-8,8-7,12s12,16,56,26c44,10,59,8,87,6s30.5,9.5,44.5,11.5     s69,2,73,1S1116.1,1168.5,1089.1,1155.5z"/>
			<linearGradient id="SVGID_30_" gradientUnits="userSpaceOnUse" x1="549.5942" y1="139.4562" x2="554.4739" y2="125.2609">
				<stop offset="0" style="stop-color:#E55C01"/>
				<stop offset="1" style="stop-color:#B53B01"/>
			</linearGradient>
			<path class="st33" d="M545.6,139.2c-0.3,5.7,9.8,4.4,11.5-6.2S546.5,119.7,545.6,139.2z"/>
			<linearGradient id="SVGID_31_" gradientUnits="userSpaceOnUse" x1="566.4281" y1="134.8651" x2="570.4281" y2="120.3651">
				<stop offset="0" style="stop-color:#E55C01"/>
				<stop offset="1" style="stop-color:#B53B01"/>
			</linearGradient>
			<path class="st34" d="M561.6,134c-0.3,6.4,11,5,13-7S562.6,112,561.6,134z"/>
			<linearGradient id="SVGID_32_" gradientUnits="userSpaceOnUse" x1="584.5348" y1="130.7001" x2="591.0348" y2="116.7001">
				<stop offset="0" style="stop-color:#E55C01"/>
				<stop offset="1" style="stop-color:#B53B01"/>
			</linearGradient>
			<path class="st35" d="M580.6,131c-0.3,6.4,11,5,13-7S581.6,109,580.6,131z"/>
			<linearGradient id="SVGID_33_" gradientUnits="userSpaceOnUse" x1="601.5593" y1="138.8557" x2="610.5593" y2="117.8557">
				<stop offset="0" style="stop-color:#E55C01"/>
				<stop offset="1" style="stop-color:#B53B01"/>
			</linearGradient>
			<path class="st36" d="M599.6,134c-0.3,6.4,11,5,13-7S600.6,112,599.6,134z"/>
			<linearGradient id="SVGID_34_" gradientUnits="userSpaceOnUse" x1="629.4476" y1="160.9705" x2="652.2959" y2="137.6029">
				<stop offset="0" style="stop-color:#E55C01"/>
				<stop offset="1" style="stop-color:#B53B01"/>
			</linearGradient>
			<path class="st37" d="M637.9,142.4c-4.3,4.1-9.9,8.8-12.1,12.4c-2.2,3.6,3.4,9.6,14.5,4.6C651.5,154.4,648.2,132.6,637.9,142.4z"/>
			<linearGradient id="SVGID_35_" gradientUnits="userSpaceOnUse" x1="885.6894" y1="504.883" x2="721.6894" y2="566.883">
				<stop offset="0" style="stop-color:#F15A24"/>
				<stop offset="1" style="stop-color:#C1451F"/>
			</linearGradient>
			<path class="st38" d="M911.6,578c-5,2-33,6-83-36s-75.9-115.5-81-91c-13,62-5,104-13,88s-10.5-67.2-15-55c-14,38-8,67-15,58     s-24-46-22-29s10,38,0.5,29.3S661.6,519,655.6,521c-3.8,1.3-10.4,9.3-14.7,15.1c-3.3,7-4.3,8.9-4.3,8.9s-18-2-29,18s-26,42-19,36     s77-60,141-23s113,55,113,55S916.6,576,911.6,578z"/>
			<path class="st9" d="M962.6,476c-36-5-42.2-73.9-47-93c-4-16-17,40-4,73C924.6,489,968.6,478,962.6,476z"/>
			<g>
				<linearGradient id="SVGID_36_" gradientUnits="userSpaceOnUse" x1="1065.2544" y1="376.1222" x2="1082.2544" y2="373.7888">
					<stop offset="0" style="stop-color:#E55C01"/>
					<stop offset="1" style="stop-color:#B53B01"/>
				</linearGradient>
				<path class="st39" d="M1084.6,367c-6,3-7,3-9,2s8.3,8.4,12.2,11.2c0.5-2.2,0.9-4.5,1.3-6.9c2.3-0.5,4.8-1.4,6.3-2.9      c1.7-1.9,1.7-2.9,0.7-4.9C1095.3,366.5,1090.2,364.2,1084.6,367z"/>
			</g>
			<path class="st40" d="M1000.1,326.5c-6-1-9,6-7,6c4.1,0,8-3,11,1C1006.6,336.8,1006,327.5,1000.1,326.5z"/>
			<path class="st40" d="M999.1,346.5c3,6,6,6,6-2C1005.1,339.4,996.1,340.5,999.1,346.5z"/>
			<linearGradient id="SVGID_37_" gradientUnits="userSpaceOnUse" x1="913.4372" y1="820.276" x2="930.3821" y2="977.2982">
				<stop offset="0" style="stop-color:#A02D12"/>
				<stop offset="1" style="stop-color:#B53B01"/>
			</linearGradient>
			<path class="st41" d="M934.2,824.8c-6.6-0.4-13-0.8-19-1.2c-9.2,50.4,3,81,1.4,97.5c-2,20.3-3.5,47-4.9,70.7     c5.7,2.7,13,5.4,22,7.3c4.2-43.6,9.2-87.6,2.4-125.5C932.6,854,932.5,838,934.2,824.8z"/>
			<linearGradient id="SVGID_38_" gradientUnits="userSpaceOnUse" x1="533.0994" y1="985.403" x2="419.0994" y2="985.403">
				<stop offset="0" style="stop-color:#A02D12"/>
				<stop offset="1" style="stop-color:#B53B01"/>
			</linearGradient>
			<path class="st42" d="M442.3,956.9c-29,5.1-78.1,27.3-121.6,39.4c3.1,7.9,6.9,13.6,10.2,17.5c33.8-2.6,74.7-4.4,99.7-6.9     c10.9-1.1,19.9-2.2,27.8-3.2C450,989,445.1,972.5,442.3,956.9L442.3,956.9z"/>
		</g>
	</g>
</g>
</svg>
