<?xml version="1.0" encoding="utf-8"?>
<!-- Generator: Adobe Illustrator 22.1.0, SVG Export Plug-In . SVG Version: 6.00 Build 0)  -->
<svg xmlns="http://www.w3.org/2000/svg" xmlns:xlink="http://www.w3.org/1999/xlink" version="1.1" id="layer_1" x="0px" y="0px" viewBox="0 0 1400 1400" style="enable-background:new 0 0 1400 1400;" xml:space="preserve">
<style type="text/css">
	.st0{fill:#FFF7E4;}
	.st1{fill:url(#SVGID_1_);}
	.st2{fill:url(#SVGID_2_);}
	.st3{fill:url(#SVGID_3_);}
	.st4{fill:url(#SVGID_4_);}
	.st5{fill:url(#SVGID_5_);}
	.st6{fill:#FFFFFF;}
	.st7{fill:url(#SVGID_6_);}
	.st8{fill:url(#SVGID_7_);}
	.st9{fill:url(#SVGID_8_);}
	.st10{fill:url(#SVGID_9_);}
	.st11{fill:url(#SVGID_10_);}
	.st12{fill:url(#SVGID_11_);}
	.st13{fill:url(#SVGID_12_);}
	.st14{fill:url(#SVGID_13_);}
	.st15{fill:url(#SVGID_14_);}
	.st16{fill:url(#SVGID_15_);}
	.st17{fill:url(#SVGID_16_);}
	.st18{fill:url(#SVGID_17_);}
	.st19{fill:url(#SVGID_18_);}
	.st20{fill:url(#SVGID_19_);}
	.st21{fill:url(#SVGID_20_);}
	.st22{fill:url(#SVGID_21_);}
	.st23{fill:url(#SVGID_22_);}
	.st24{fill:url(#SVGID_23_);}
	.st25{fill:url(#SVGID_24_);}
	.st26{fill:url(#SVGID_25_);}
	.st27{fill:url(#SVGID_26_);}
	.st28{fill:url(#SVGID_27_);}
	.st29{fill:url(#SVGID_28_);}
	.st30{fill:url(#SVGID_29_);}
	.st31{fill:url(#SVGID_30_);}
	.st32{fill:url(#SVGID_31_);}
	.st33{fill:url(#SVGID_32_);}
	.st34{fill:url(#SVGID_33_);}
	.st35{fill:url(#SVGID_34_);}
	.st36{fill:url(#SVGID_35_);}
	.st37{fill:url(#SVGID_36_);}
	.st38{fill:url(#SVGID_37_);}
</style>
<g>
	
	<g>
		<linearGradient id="SVGID_1_" gradientUnits="userSpaceOnUse" x1="1516.5087" y1="603.2931" x2="409.1587" y2="784.1603">
			<stop offset="0" style="stop-color:#38A9DC"/>
			<stop offset="1" style="stop-color:#5C22CE"/>
		</linearGradient>
		<path class="st1" d="M1112.4,471.1C728.6,333.5,1009.6,39.3,548.2,176.6C155.3,293.4-70.8,892.7,333,1196.4    C987.9,1688.9,1579.9,638.6,1112.4,471.1z"/>
		<linearGradient id="SVGID_2_" gradientUnits="userSpaceOnUse" x1="1118.7612" y1="580.0922" x2="374.0137" y2="1315.3727">
			<stop offset="0" style="stop-color:#38A9DC"/>
			<stop offset="1" style="stop-color:#5C22CE"/>
		</linearGradient>
		<path class="st2" d="M1114.9,472c-312.8-148-673.5,408-951,515.9c34.2,77,89.3,148.5,169.1,208.5    C986.8,1688.1,1577.8,642.4,1114.9,472z"/>
		<g>
			<linearGradient id="SVGID_3_" gradientUnits="userSpaceOnUse" x1="996.5493" y1="1133.4374" x2="993.2811" y2="1149.9341">
				<stop offset="0" style="stop-color:#FFFFFF"/>
				<stop offset="1" style="stop-color:#60B0FF"/>
			</linearGradient>
			<path class="st3" d="M989.9,1128.1c-1.1,6.8-2.2,13.7-3.2,20.7l14.1,2c0.4-2.9,0.8-5.8,1.3-8.7     C997,1137.9,992.9,1133.2,989.9,1128.1z"/>
			<linearGradient id="SVGID_4_" gradientUnits="userSpaceOnUse" x1="1096.1066" y1="826.8738" x2="1036.7258" y2="1126.6057">
				<stop offset="0" style="stop-color:#FFFFFF"/>
				<stop offset="1" style="stop-color:#60B0FF"/>
			</linearGradient>
			<path class="st4" d="M1207.2,835.5c5.8-7.9,11.3-15.1,16.5-21.5l-11.1-8.9c-4.5,5.6-9.4,11.9-14.4,18.7     c-12.7-16.9-24.7-34.7-36-53.1l-12.1,7.4c12.3,20.1,25.4,39.4,39.4,57.8c-10.9,15.4-22.4,33.2-34.2,53.5     c-15.1-19.3-29.2-39.6-42.4-60.9c13.4-21.6,26.6-40.3,39-56.3l-11.2-8.7c-11.5,14.8-23.7,31.9-36,51.4     c-10.2-17.3-19.7-35.2-28.6-53.7l-12.8,6.1c10.2,21.2,21.2,41.6,33,61.2c-16,26.6-32.1,57.4-47.1,92.4     c-14.7-21.1-28.5-43.3-41-66.2c13.5-29,28.6-56.7,45.4-83l-12-7.6c-15.1,23.7-29,48.8-41.6,75c-6.1-11.8-11.8-23.7-17.2-35.9     l-13,5.8c7.1,15.8,14.6,31.3,22.6,46.3c-5.5,12.1-10.7,24.4-15.6,36.8c-6,15.3-11.6,30.9-16.9,46.8c-11-18-21.2-36.7-30.8-56.1     l-12.7,6.3c11.6,23.5,24.2,46,37.9,67.6c-7.9,26.1-14.8,52.9-20.5,80.3c-2.4-3.2-4.7-6.4-7-9.7l-11.6,8.2     c4.9,6.9,9.8,13.6,14.9,20.2c-0.9,5-1.9,10-2.7,15l14,2.4c0.1-0.8,0.3-1.7,0.4-2.5c14.1,17.4,28.9,33.8,44.4,49.3     c-1.1-3.5-1.7-7.2-1.7-10.9c0-3.3,0.5-6.6,1.4-9.8c-14.2-14.9-27.8-30.6-40.7-47.2c5.3-27.4,11.7-54,19.2-79.8     c14.3,21.4,29.7,41.7,46,60.9c-3.9,14.5-7.6,29.5-11,45.1c4.8-4.5,10.7-8.6,17.3-12.1c1.6-6.8,3.2-13.4,4.9-20     c3.9,4.3,7.9,8.6,11.8,12.8c4.9-1.7,10.2-3.1,15.6-4.2c-7.9-8.1-15.6-16.5-23-25.1c8-28.6,17-55.2,26.6-79.8     c15,19.7,30.9,38.5,47.8,56.2c-0.2,0.5-0.4,1.1-0.6,1.6c-5.3,14.4-10.3,29-14.9,43.8c5,0.1,9.8,0.5,14.6,1     c3.7-11.9,7.7-23.6,11.9-35.2c14.9,14.8,30.3,28.8,46.4,41.8c-0.8,2.1-1.5,4.1-2.2,6.2c14.9-20.5,28.7-41.5,41.1-63     c4.8-10.3,9.8-20.5,15-30.4c0.4,0.4,0.8,0.7,1.2,1.1c2.3-4.4,4.5-8.8,6.7-13.2c-0.3-0.3-0.6-0.6-0.9-0.8     c2.8-5.1,5.6-10.1,8.5-15.1c0.1-0.1,0.1-0.2,0.2-0.4c10.1-22,18.9-44.2,26.2-66.4c-1.6,2.1-3.1,4.3-4.7,6.5     C1234.4,868.3,1220.5,852.3,1207.2,835.5z M1015.1,1016.5c-16.1-19.6-31.3-40.3-45.4-62.1c9-28.9,19.4-56.8,31.2-83.7     c12.9,22.9,26.9,44.7,41.9,65.6C1032.8,961,1023.5,987.7,1015.1,1016.5z M1106.2,991.3c-16.6-17.8-32.4-36.9-47.2-57.1     c14.5-34.9,30.1-65.6,45.8-92.3c13.4,21.2,27.8,41.4,43,60.6C1133.6,928.5,1119.4,958,1106.2,991.3z M1163.2,1045     c-16-13.2-31.4-27.4-46.2-42.4c12.7-33,26.6-62.4,40.5-88.2c12.7,15.2,26,29.7,39.8,43.5c1.2,1.2,2.5,2.4,3.7,3.6     C1187,988.2,1174.4,1016,1163.2,1045z M1215.3,935.9c-2.4,4.2-4.8,8.4-7.2,12.7c-0.2-0.2-0.5-0.5-0.7-0.7     c-14.8-14.8-29-30.4-42.5-46.8c11.5-20.3,23-38.2,33.7-53.6c13.3,16.8,27.4,32.8,42,47.9C1232.3,907.7,1223.8,921.2,1215.3,935.9     z"/>
			<linearGradient id="SVGID_5_" gradientUnits="userSpaceOnUse" x1="1045.8121" y1="1163.2256" x2="1043.2908" y2="1175.9528">
				<stop offset="0" style="stop-color:#FFFFFF"/>
				<stop offset="1" style="stop-color:#60B0FF"/>
			</linearGradient>
			<path class="st5" d="M1048,1174c1.8,1.4,3.7,2.8,5.5,4.1c4.5-4,8.9-8.1,13.3-12.2c-15.1-1.3-29.1-4.8-41.1-9.8     C1033,1162.3,1040.4,1168.2,1048,1174z"/>
		</g>
		<path class="st6" d="M986,1149.6l9.9,60c-23.3-15.5-39-29.1-44-33.6l-17.4-106.8l-14,2.3l29.5,181.9c4.4-2.6,8.8-5.2,13.1-7.8    l-7.8-47.8c9.1,7.4,22.2,17.3,38.3,27.7c5.8-4,11.4-8.2,17.1-12.4l-10.8-65.7L986,1149.6z"/>
		<path class="st6" d="M866.7,436.8c-1.4-31.4-11.3-61.8-29.5-90.6c-18.8-29.7-45.7-56.3-79.9-79.1C687.5,220.7,595,195,496.6,195    c-11.1,4.7-22.1,9.7-32.9,15.2c10.8-0.7,21.7-1,32.7-1c192.6,0,350,101.4,356,227.6H220.8c-2.9,4.7-5.8,9.4-8.6,14.2h640.4    c-5.4,126.5-163,228.4-356.1,228.4c-146.6,0-272.8-58.7-327.4-142.4c-2.2,5.3-4.3,10.5-6.3,15.9c18.3,25.5,42.7,48.6,72.9,68.7    c69.8,46.5,162.4,72.1,260.8,72.1s191.1-25.6,260.8-72.1c34.2-22.8,61.1-49.4,79.9-79.1c18.4-29,28.3-59.7,29.5-91.4h50.6    l130.9,314l13.1-5.5L926.8,436.8H866.7z"/>
		<linearGradient id="SVGID_6_" gradientUnits="userSpaceOnUse" x1="224.8663" y1="895.4449" x2="778.6935" y2="955.4034">
			<stop offset="0" style="stop-color:#1B1464"/>
			<stop offset="1" style="stop-color:#5C22CE"/>
		</linearGradient>
		<path class="st7" d="M455.8,848.6c-205.9-103.3-253.2,93.9-68.6,146C633.6,1064.1,661.7,952,455.8,848.6z"/>
		<linearGradient id="SVGID_7_" gradientUnits="userSpaceOnUse" x1="1011.5163" y1="1230.9402" x2="1087.2533" y2="849.0993">
			<stop offset="0" style="stop-color:#1B1464"/>
			<stop offset="1" style="stop-color:#5C22CE"/>
		</linearGradient>
		<path class="st8" d="M1182.3,768.2c-26.2-12.6-53.5-19.7-81.3-21c-28.9-1.4-57,3.5-83.4,14.6c-26.4,11.1-49.6,27.6-68.8,49.2    c-18.5,20.7-32.6,45.2-42,72.7c-19.1,56.1-16.3,118.7,7.8,176.3c24.2,57.6,66.9,103.5,120.3,129.2c1.2,0.6,2.5,1.2,3.7,1.7    c9-7.5,17.8-15.3,26.3-23.3c-51.3-19-96.7-61.4-121.2-119.8c-43.4-103.6-4.8-218.9,86.1-257c19.9-8.4,40.8-12.3,61.6-12.3    c62.4,0,124.8,35.6,163.2,95.2c4.2-12.9,7.9-25.8,11.1-38.7C1243,806.6,1214.6,783.7,1182.3,768.2z"/>
		<linearGradient id="SVGID_8_" gradientUnits="userSpaceOnUse" x1="681.5596" y1="828.1882" x2="745.2872" y2="828.1882">
			<stop offset="0" style="stop-color:#E55C01"/>
			<stop offset="1" style="stop-color:#B53B01"/>
		</linearGradient>
		<path class="st9" d="M738.6,799.3c-15-5.5-23.9,6.6-23.9,6.6l-33.1,36.3l21.6,16.3l35.5-38.7C738.6,819.8,753.6,804.8,738.6,799.3    z"/>
		<linearGradient id="SVGID_9_" gradientUnits="userSpaceOnUse" x1="722.1102" y1="850.1981" x2="635.3282" y2="897.9282">
			<stop offset="0" style="stop-color:#FFFFFF"/>
			<stop offset="1" style="stop-color:#60B0FF"/>
		</linearGradient>
		<path class="st10" d="M682.6,836.4c-13.4,7.9-19.7,14.2-19.7,14.2l-44.2,60c0,4.7,7.1,18.9,18.1,20.5s45-40.2,56-52.9    c11-12.6,15-22.1,15-22.1S705.5,830.9,682.6,836.4z"/>
		<linearGradient id="SVGID_10_" gradientUnits="userSpaceOnUse" x1="713.052" y1="825.7007" x2="766.3046" y2="787.0433">
			<stop offset="0" style="stop-color:#FFFFFF"/>
			<stop offset="1" style="stop-color:#60B0FF"/>
		</linearGradient>
		<path class="st11" d="M738.6,799.3c-15-5.5-23.9,6.6-23.9,6.6l-16,17.5c6.6,1.1,16.3,4.9,21.1,16.9l18.8-20.5    C738.6,819.8,753.6,804.8,738.6,799.3z"/>
		<linearGradient id="SVGID_11_" gradientUnits="userSpaceOnUse" x1="714.9573" y1="795.7166" x2="762.358" y2="795.7166">
			<stop offset="0" style="stop-color:#1B1464"/>
			<stop offset="1" style="stop-color:#5C22CE"/>
		</linearGradient>
		<path class="st12" d="M742.6,766.2c-9.5-3.9-16.6-6.3-18.9,0c-2.2,6-8.7,33.1-8.7,36.3c0,3.2,8.7,3.2,11.8,1.6s7.1-2.4,9.5,0.8    c5.4,7.1,1.6,11.8,2.4,14.2s1.6,2.4,3.2,5.5c2.6,5.1,16.1,8.3,17.9-3.7c0,0,1.8-8.1,2.6-16s-5.9-28.2-5.9-28.2    S752,770.1,742.6,766.2z"/>
		<linearGradient id="SVGID_12_" gradientUnits="userSpaceOnUse" x1="813.0718" y1="1044.3322" x2="862.7718" y2="1023.0322">
			<stop offset="0" style="stop-color:#A02D12"/>
			<stop offset="1" style="stop-color:#B53B01"/>
		</linearGradient>
		<path class="st13" d="M789.9,1052.6c-2.4,1.6-1.6,5.5,4.7,4.7s21.3-4.7,21.3-4.7l-5.5-16.6C810.4,1036,792.3,1051,789.9,1052.6z"/>
		<linearGradient id="SVGID_13_" gradientUnits="userSpaceOnUse" x1="488.4064" y1="805.7347" x2="546.3925" y2="801.0012">
			<stop offset="0" style="stop-color:#1B1464"/>
			<stop offset="1" style="stop-color:#5C22CE"/>
		</linearGradient>
		<path class="st14" d="M489.3,789.9l-22.1,16.6c0,0,28.4,13.4,31.6,14.2c3.2,0.8,23.9-12.9,32.9-17.9    C540.6,797.7,489.3,789.9,489.3,789.9z"/>
		<linearGradient id="SVGID_14_" gradientUnits="userSpaceOnUse" x1="453.2167" y1="866.2769" x2="681.5999" y2="769.2437">
			<stop offset="0" style="stop-color:#1B1464"/>
			<stop offset="1" style="stop-color:#5C22CE"/>
		</linearGradient>
		<path class="st15" d="M603.7,716.5l-83.6-9.5c0,0-23.7,7.9-45,19.7c-21.3,11.8-29.2,15.8-34.7,18.1c-5.5,2.4-7.9,9.5-15,23.7    c-7.1,14.2,11,28.4,20.5,38.7c9.5,10.3,48.9-4.7,48.9-4.7s39.4,9.5,49.7,8.7c20.5,28.4,34.7,44.2,46.5,69.4    c11.8,25.2,15.8,30,27.6,34.7s27.6,3.2,37.1-4.7c9.5-7.9,14.2-18.9,11-17.4c0.8-35.5-1.6-71.8-1.6-71.8s3.9-32.3,4.7-46.5    c0.8-14.2-1.3-16.2-1.3-16.2L603.7,716.5z"/>
		<linearGradient id="SVGID_15_" gradientUnits="userSpaceOnUse" x1="860.2179" y1="969.1649" x2="659.1771" y2="614.2842">
			<stop offset="0" style="stop-color:#E55C01"/>
			<stop offset="1" style="stop-color:#B53B01"/>
		</linearGradient>
		<path class="st16" d="M822.3,868.7c-3.2-23.7-14.2-56.8-16.6-72.6c-2.4-15.8,1.6-63.9-8.7-89.9c0-11,12.3-31.4,0.8-58.4    c-14.2-33.1-26.8-30.8-30.8-40.2c-3.9-9.5-9.5-20.5-9.5-20.5l-41.8,50.5l-3.9,71l19.7-18.1l11-3.9c0,0,6.3,15.8,8.7,22.1    c2.4,6.3,6.3,105.7,10.3,127c3.9,21.3,33.9,97,41,119.1s5.5,33.9,5.5,33.9s-7.9,2.4-12.6,18.9s-8.7,25.2-10.3,31.6    c-1.6,6.3,6.3,13.4,11,3.9c4.7-9.5,7.1-15.8,9.5-13.4c2.4,2.4,1.6,10.3,3.9,22.1c2.4,11.8-1.6,31.6,0,39.4c1.6,7.9,6.3,6.3,7.9,0    c1.6-6.3,7.9-25.2,9.5-36.3c1.6-11,6.3-21.3,8.7-45.8c2.4-24.5,4.7-26.8,0-48.1S825.4,892.4,822.3,868.7z"/>
		<linearGradient id="SVGID_16_" gradientUnits="userSpaceOnUse" x1="729.9332" y1="655.7548" x2="780.6304" y2="881.2701">
			<stop offset="0" style="stop-color:#A02D12"/>
			<stop offset="1" style="stop-color:#B53B01"/>
		</linearGradient>
		<path class="st17" d="M799.4,905.8c-13.4-38.7-12.6-89.9-15.8-82s-4.7,20.5-8.7,11.8c-3.9-8.7-11-113.6-14.2-128.6    s13.4-6.3,9.5-11.8c-3.9-5.5-22.9-29.2-25.2-33.9c-2.4-4.7-3.2,6.3-2.4,15c-2.4,1.6-29.4,8.2-29.4,8.2v0l-1.3,24.1l19.7-18.1    l11-3.9c0,0,6.3,15.8,8.7,22.1c2.4,6.3,6.3,105.7,10.3,127c3.9,21.3,33.9,97,41,119.1s5.5,33.9,5.5,33.9s-7.9,2.4-12.6,18.9    s-8.7,25.2-10.3,31.6c-0.6,2.5,0.3,5.2,1.8,6.8c-2.1-4.2,6.8-19.5,13.9-36c7.1-16.6,22.1-18.1,18.9-26.8    C816.7,974.5,812.8,944.5,799.4,905.8z"/>
		<linearGradient id="SVGID_17_" gradientUnits="userSpaceOnUse" x1="660.2857" y1="574.0275" x2="736.9653" y2="574.0275">
			<stop offset="0" style="stop-color:#E55C01"/>
			<stop offset="1" style="stop-color:#B53B01"/>
		</linearGradient>
		<path class="st18" d="M683.4,534.2c0,0-6.3,15-15.8,29.2c-30.4,78.5,43.4,41.8,43.4,41.8s17.4-23.7,25.2-32.3    C744.1,564.2,683.4,534.2,683.4,534.2z"/>
		<linearGradient id="SVGID_18_" gradientUnits="userSpaceOnUse" x1="708.7241" y1="557.3987" x2="659.0217" y2="595.2672">
			<stop offset="0" style="stop-color:#A02D12"/>
			<stop offset="1" style="stop-color:#B53B01"/>
		</linearGradient>
		<path class="st19" d="M683.4,534.2c0,0-6.3,15-15.8,29.2c-1.7,4.3-3,8.3-4.1,12c0.6,2.5,1.3,5,2.1,7.4    c9.3,27.3,39.2,22.4,58.4,5.2c4.2-5.4,8.5-10.9,11.6-14.4c0.3-0.6,0.7-1.2,1-1.8c0.1-0.2,0.2-0.5,0.3-0.7    C736.7,560.5,683.4,534.2,683.4,534.2z"/>
		<linearGradient id="SVGID_19_" gradientUnits="userSpaceOnUse" x1="754.1313" y1="483.5348" x2="670.5051" y2="587.1473">
			<stop offset="0" style="stop-color:#E55C01"/>
			<stop offset="1" style="stop-color:#B53B01"/>
		</linearGradient>
		<path class="st20" d="M737,458.5l-36.3,15.8l-13.6,28.4c-0.6-9.5-15.6-7.9-14,10.2c1.6,18.1,7.9,16.6,7.9,16.6s5.1,19.5,15.8,38.7    c11.8,21.3,30.3,15.7,48.1,3.2c21.3-15,36.3-48.1,34.7-74.2C757.6,468.8,737,458.5,737,458.5z"/>
		<linearGradient id="SVGID_20_" gradientUnits="userSpaceOnUse" x1="686.4378" y1="492.8091" x2="761.3859" y2="465.9855">
			<stop offset="0" style="stop-color:#1B1464"/>
			<stop offset="1" style="stop-color:#5C22CE"/>
		</linearGradient>
		<path class="st21" d="M709,447.9c-13.4-1.6-21.3,17.4-22.9,45.8c-1.1,20.6-2.4,30-2.4,30s6.3-6.3,9.5-9.5    c5.5-14.2,5.9-19.3,5.9-19.3s15.8-6.3,20.9-26.4c15.4,1.2,18.9,17.4,33.9,24.5s23.7-2.4,26,4.7C780,450.2,742.2,427.3,709,447.9z"/>
		<linearGradient id="SVGID_21_" gradientUnits="userSpaceOnUse" x1="604.0365" y1="346.7913" x2="722.3698" y2="447.3745">
			<stop offset="0" style="stop-color:#E55C01"/>
			<stop offset="1" style="stop-color:#B53B01"/>
		</linearGradient>
		<path class="st22" d="M663.7,160.3c-8.7,14.2-32.3,52.9-48.9,86.8c-16.6,33.9-31.6,74.2-30,88.4c1.6,14.2-3.9,107.3,16.6,166.5    c-11,30-12.6,80.5-12.6,80.5l45.8,7.1c0,0,40.2-52.9,35.4-78.6S644,438.8,644,438.8s3.2-52.9-7.9-100.2    c30.8-46.5,22.9-99.4,47.3-138.1C697.9,177.6,672.4,146.1,663.7,160.3z"/>
		<linearGradient id="SVGID_22_" gradientUnits="userSpaceOnUse" x1="584.7744" y1="528.4719" x2="661.691" y2="165.189">
			<stop offset="0" style="stop-color:#A02D12"/>
			<stop offset="1" style="stop-color:#B53B01"/>
		</linearGradient>
		<path class="st23" d="M671.6,157.1c-3.1-0.9-5.9,0-7.9,3.2c-8.7,14.2-32.3,52.9-48.9,86.8c-16.6,33.9-31.6,74.2-30,88.4    c1.6,14.2-3.9,107.3,16.6,166.5c-11,30-12.6,80.5-12.6,80.5l26.1,4.1l2-27.5c-5.2,2.9-7.6-0.2-3.7-20.7    c3.9-20.5,17.4-56.8,19.7-63.1c2.4-6.3-17.4,9.5-17.4,9.5s-12.6-45-13.4-76.5c-0.8-31.6,2.4-65.5,5.5-68.6s-4.7-11,1.6-25.2    c6.3-14.2,41-92.3,43.4-96.2c2-3.3,5.2,7.5,17.6,13.3c3.2-10.9,7.2-21.2,13.2-30.6c2.5-4,3.8-8.3,4.2-12.5    C687.6,188,681.9,165.5,671.6,157.1z"/>
		<linearGradient id="SVGID_23_" gradientUnits="userSpaceOnUse" x1="576.4006" y1="725.8269" x2="788.6221" y2="500.1936">
			<stop offset="0" style="stop-color:#F15A24"/>
			<stop offset="1" style="stop-color:#EDB32E"/>
		</linearGradient>
		<path class="st24" d="M757.6,587.1c-1.6-8.7-15.3-13.9-15.3-13.9s-3.6-1.3-11.5,6.3c-14.2,8.2-63.1,25.8-63.1,25.8    s3.1-30.4,11.1-61.1c-1.5-6.7-11.1-41.5-11.1-41.5c-2.4-7.9-7.9,35.5-7.9,35.5s-75.7,35.5-77.3,40.2    c-1.6,4.7-43.4,104.1-47.3,106.5c-3.9,2.4-18.9,11.8-18.9,18.1s26.8,85.2,66.3,89.9c39.4,4.7,78.9-15,82-19.7s0-8.7,6.3-18.1    c6.3-9.5,60.7-64.7,60.7-64.7s-21.3,17.4-17.4,4.7S738.6,612.3,757.6,587.1z"/>
		<linearGradient id="SVGID_24_" gradientUnits="userSpaceOnUse" x1="738.9232" y1="70.9062" x2="653.954" y2="218.9954">
			<stop offset="0" style="stop-color:#F15A24"/>
			<stop offset="1" style="stop-color:#C1451F"/>
		</linearGradient>
		<circle class="st25" cx="686.1" cy="163" r="79.8"/>
		<linearGradient id="SVGID_25_" gradientUnits="userSpaceOnUse" x1="606.3398" y1="162.9843" x2="765.8431" y2="162.9843">
			<stop offset="0" style="stop-color:#F97F48"/>
			<stop offset="1" style="stop-color:#FFE15F"/>
		</linearGradient>
		<path class="st26" d="M711.9,175.7c0.5-11.8,6.8-20.9,14-31.2c6.9-9.9,14.6-20.8,18.4-36.1c-1.7-1.8-3.4-3.5-5.3-5.1    c-3.1,16-10.8,27-18.2,37.7c-7.6,10.9-14.9,21.3-15.2,35.3c-5.6,0.5-11.2,0.7-16.8,0.8V83.3c-0.9,0-1.8,0-2.7,0    c-1.2,0-2.4,0-3.6,0.1v93.7c-5.6-0.1-11.2-0.4-16.7-0.9c-0.3-14-7.6-24.3-15.2-35.2c-7.4-10.5-14.9-21.4-18.1-37.1    c-1.8,1.7-3.6,3.4-5.2,5.2c3.9,14.9,11.4,25.7,18.2,35.5c7.2,10.2,13.4,19.2,14,31c-18.2-2.1-36-6.5-53.2-12.9c0,0.1,0,0.3,0,0.4    c0,2.1,0.1,4.3,0.3,6.4c17,6.2,34.7,10.4,52.7,12.4c-1.5,12.1-8.7,21.9-21.4,29.2c-3.9,2.2-7.9,3.9-11.2,5.1    c1.5,1.7,3.1,3.3,4.8,4.9c2.9-1.2,6.1-2.6,9.4-4.5c14.5-8.2,23-20,24.7-34.1c5.6,0.5,11.3,0.8,17,0.9v59.3    c1.2,0.1,2.4,0.1,3.6,0.1c0.9,0,1.8,0,2.7,0v-59.3c5.7-0.1,11.5-0.3,17.1-0.8c1.7,14,10.2,25.7,24.7,33.9c3.4,2,6.8,3.5,9.9,4.7    c1.7-1.6,3.3-3.2,4.8-4.9c-3.5-1.2-7.6-3-11.8-5.3c-12.7-7.2-19.9-17-21.4-29c18.3-2,36.1-6.1,53.4-12.3c0.2-2.2,0.3-4.5,0.3-6.7    c0,0,0,0,0-0.1C748.4,169.4,730.4,173.7,711.9,175.7z"/>
		<linearGradient id="SVGID_26_" gradientUnits="userSpaceOnUse" x1="674.2378" y1="191.1395" x2="725.2244" y2="65.4939">
			<stop offset="0" style="stop-color:#F97F48"/>
			<stop offset="1" style="stop-color:#FFE15F"/>
		</linearGradient>
		<path class="st27" d="M686.1,83.2c-37.2,0-68.5,25.5-77.3,60c3.1,43.6,39.4,78,83.8,78c29.8,0,56-15.5,70.9-38.9    c1.5-6.2,2.4-12.7,2.4-19.3C765.8,118.9,730.1,83.2,686.1,83.2z"/>
		<path class="st6" d="M711.9,175.7c0.5-11.8,6.8-20.9,14-31.2c6.9-9.9,14.6-20.8,18.4-36.1l0,0c-0.4-0.4-0.8-0.9-1.3-1.3    c0,0,0,0,0,0c-0.4-0.4-0.9-0.9-1.3-1.3c0,0,0,0,0,0c-0.4-0.4-0.9-0.8-1.3-1.3c0,0,0,0,0,0c-0.4-0.4-0.9-0.8-1.4-1.2l0,0    c-3.1,16-10.8,27-18.2,37.7c-7.6,10.9-14.9,21.3-15.2,35.3c-5.6,0.5-11.2,0.7-16.8,0.8V83.3h0c-0.4,0-0.7,0-1.1,0    c-0.5,0-1,0-1.6,0c-1.2,0-2.4,0-3.6,0.1v93.7c-5.6-0.1-11.2-0.4-16.7-0.9c-0.3-14-7.6-24.3-15.2-35.2    c-7.4-10.5-14.9-21.4-18.1-37.1c-0.1,0.1-0.2,0.2-0.3,0.3c-0.3,0.2-0.5,0.5-0.8,0.7c-0.2,0.2-0.3,0.3-0.5,0.5    c-0.3,0.3-0.6,0.6-0.9,0.8c-0.1,0.1-0.2,0.2-0.4,0.4c-0.4,0.4-0.7,0.7-1.1,1.1c0,0-0.1,0.1-0.1,0.1c-0.4,0.4-0.8,0.9-1.2,1.3    c3.9,14.9,11.4,25.7,18.2,35.5c7.2,10.2,13.4,19.2,14,31c-15.8-1.9-31.2-5.3-46.2-10.4c0.9,2.6,2,5.1,3.1,7.6    c14,4.4,28.3,7.4,42.8,9.1c-1.2,9.7-6,17.9-14.5,24.5c1.8,1.2,3.7,2.4,5.5,3.5c8.7-7.5,13.9-16.8,15.1-27.4    c5.6,0.5,11.3,0.8,17,0.9v37.3c2.1,0.2,4.2,0.4,6.3,0.5v-37.8c5.7-0.1,11.5-0.3,17.1-0.8c1.6,12.7,8.7,23.5,20.7,31.5    c2.3-1,4.4-2.1,6.6-3.3c-12.5-7.2-19.5-16.9-21-28.8c18.3-2,36.1-6.1,53.4-12.3c0-0.3,0.1-0.7,0.1-1c0-0.4,0.1-0.9,0.1-1.3    c0-0.5,0-0.9,0.1-1.4c0-0.3,0-0.5,0-0.8c0-0.7,0-1.4,0-2.1c0,0,0,0,0-0.1C748.4,169.4,730.4,173.7,711.9,175.7z"/>
		<linearGradient id="SVGID_27_" gradientUnits="userSpaceOnUse" x1="653.9305" y1="97.4516" x2="658.6996" y2="83.5777">
			<stop offset="0" style="stop-color:#E55C01"/>
			<stop offset="1" style="stop-color:#B53B01"/>
		</linearGradient>
		<path class="st28" d="M650,97.2c-0.3,5.5,9.5,4.3,11.3-6.1C663,80.7,650.9,78.1,650,97.2z"/>
		<linearGradient id="SVGID_28_" gradientUnits="userSpaceOnUse" x1="670.3832" y1="92.9645" x2="674.2927" y2="78.7928">
			<stop offset="0" style="stop-color:#E55C01"/>
			<stop offset="1" style="stop-color:#B53B01"/>
		</linearGradient>
		<path class="st29" d="M665.7,92.1c-0.3,6.3,10.8,4.9,12.7-6.8C680.3,73.6,666.6,70.6,665.7,92.1z"/>
		<linearGradient id="SVGID_29_" gradientUnits="userSpaceOnUse" x1="688.08" y1="88.8938" x2="694.4328" y2="75.2107">
			<stop offset="0" style="stop-color:#E55C01"/>
			<stop offset="1" style="stop-color:#B53B01"/>
		</linearGradient>
		<path class="st30" d="M684.2,89.2c-0.3,6.3,10.8,4.9,12.7-6.8C698.9,70.6,685.2,67.7,684.2,89.2z"/>
		<linearGradient id="SVGID_30_" gradientUnits="userSpaceOnUse" x1="704.7191" y1="96.8648" x2="713.5153" y2="76.3403">
			<stop offset="0" style="stop-color:#E55C01"/>
			<stop offset="1" style="stop-color:#B53B01"/>
		</linearGradient>
		<path class="st31" d="M702.8,92.1c-0.3,6.3,10.8,4.9,12.7-6.8C717.5,73.6,703.8,70.6,702.8,92.1z"/>
		<linearGradient id="SVGID_31_" gradientUnits="userSpaceOnUse" x1="731.9759" y1="118.4789" x2="754.3069" y2="95.6403">
			<stop offset="0" style="stop-color:#E55C01"/>
			<stop offset="1" style="stop-color:#B53B01"/>
		</linearGradient>
		<path class="st32" d="M740.3,100.3c-4.2,4-9.7,8.6-11.8,12.1c-2.1,3.5,3.3,9.4,14.2,4.5C753.5,112,750.3,90.8,740.3,100.3z"/>
		<linearGradient id="SVGID_32_" gradientUnits="userSpaceOnUse" x1="535.7409" y1="793.9738" x2="659.9908" y2="856.6904">
			<stop offset="0" style="stop-color:#1B1464"/>
			<stop offset="1" style="stop-color:#5C22CE"/>
		</linearGradient>
		<path class="st33" d="M627.4,838c-15-3.2-65.5-22.9-76.5-33.9s-37.3-32.7-41-40.2c-2.4-4.7,3.9,30,34.7,48.9    C598.2,853,642.4,841.1,627.4,838z"/>
		<linearGradient id="SVGID_33_" gradientUnits="userSpaceOnUse" x1="562.5289" y1="841.5969" x2="671.9269" y2="873.1539">
			<stop offset="0" style="stop-color:#1B1464"/>
			<stop offset="1" style="stop-color:#5C22CE"/>
		</linearGradient>
		<path class="st34" d="M632.1,856.1c-27.1,1.7-43.4-8.7-41.8-7.1C615,873.3,637.1,855.8,632.1,856.1z"/>
		<linearGradient id="SVGID_34_" gradientUnits="userSpaceOnUse" x1="500.4788" y1="781.4344" x2="569.3784" y2="830.3479">
			<stop offset="0" style="stop-color:#1B1464"/>
			<stop offset="1" style="stop-color:#5C22CE"/>
		</linearGradient>
		<path class="st35" d="M485.4,759.9c-0.8-6.3-7.1,7.9,0.8,20.5c6.8,10.8,24.5,18.1,20.5,13.4C503.4,789.9,486.2,766.2,485.4,759.9z    "/>
		<linearGradient id="SVGID_35_" gradientUnits="userSpaceOnUse" x1="650.773" y1="555.1232" x2="641.3058" y2="738.9434">
			<stop offset="0" style="stop-color:#F15A24"/>
			<stop offset="1" style="stop-color:#C1451F"/>
		</linearGradient>
		<path class="st36" d="M713.8,696.5c-0.9,0.8-1.4,1.2-1.4,1.2s1.8-24.6,2.6-29.5c0.8-4.9-11.8,17.5-26.8,18.3    c-15,0.8-23.7-9.5-52.1-30c-28.4-20.5-41-7.9-42.6-34.7s17.4-52.1,14.2-49.7s-28.5,14.3-28.5,14.3l0,0    c-4.3,10.4-12.2,29.2-20.2,47.6c2,9.7,8.1,35.2,15.9,41c21.3,15.8,25.8,7.7,44.2,19.7c18.1,11.8,11,18.1,37.9,24.5    c26.8,6.3,26.8,7.1,26.8,7.1l5.5,7.8c18-19.2,42.2-43.7,42.2-43.7S711.8,706.5,713.8,696.5z"/>
		<g>
			<linearGradient id="SVGID_36_" gradientUnits="userSpaceOnUse" x1="651.1653" y1="515.1901" x2="703.2319" y2="609.8566">
				<stop offset="0" style="stop-color:#1B1464"/>
				<stop offset="1" style="stop-color:#5C22CE"/>
			</linearGradient>
			<path class="st37" d="M666.5,502c-1.4,1.9-3.3,12.4-4.8,21.7c-2,16.6-2.7,39.7,3.9,59.1c1,3,2.3,5.7,3.8,7.9     c1.7-11.7,4.7-29.1,9.3-46.6c-1.5-6.7-11.1-41.4-11.1-41.5C667.2,502.4,666.8,502.2,666.5,502z"/>
			<linearGradient id="SVGID_37_" gradientUnits="userSpaceOnUse" x1="663.3555" y1="508.4854" x2="715.4221" y2="603.152">
				<stop offset="0" style="stop-color:#1B1464"/>
				<stop offset="1" style="stop-color:#5C22CE"/>
			</linearGradient>
			<path class="st38" d="M681.1,600.3c16.7,6.5,40.6-5.4,52.5-23.4c-0.9,0.7-1.9,1.6-3,2.6C721.3,584.9,696.7,594.4,681.1,600.3z"/>
		</g>
	</g>
</g>
</svg>
